<?xml version="1.0" encoding="UTF-8" standalone="no"?>
<svg width="20px" height="17px" viewBox="0 0 20 17" version="1.1" xmlns="http://www.w3.org/2000/svg" xmlns:xlink="http://www.w3.org/1999/xlink">
    <!-- Generator: Sketch 3.8.3 (29802) - http://www.bohemiancoding.com/sketch -->
    <title>twitter</title>
    <desc>Created with Sketch.</desc>
    <defs></defs>
    <g id="Page-1" stroke="none" stroke-width="1" fill="none" fill-rule="evenodd">
        <g id="Artboard-1-Copy" transform="translate(-1194.000000, -1138.000000)" fill="#000000">
            <g id="Group" transform="translate(1050.000000, 1136.000000)">
                <g id="twitter" transform="translate(144.000000, 2.000000)">
                    <path d="M19.7647059,2.51752941 C19.0358824,2.83870588 18.2576471,3.05735294 17.4361765,3.15617647 C18.2724706,2.65341176 18.9160588,1.85911765 19.2187059,0.912882353 C18.4355294,1.37611765 17.5671176,1.71335294 16.6431176,1.89494118 C15.9044118,1.10682353 14.8519412,0.615176471 13.6833529,0.615176471 C11.445,0.615176471 9.62911765,2.42858824 9.62911765,4.66694118 C9.62911765,4.98564706 9.66617647,5.29694118 9.73411765,5.59341176 C6.36423529,5.42294118 3.37605882,3.80964706 1.37611765,1.35882353 C1.02529412,1.95547059 0.827647059,2.65217647 0.827647059,3.39705882 C0.827647059,4.80529412 1.54411765,6.04429412 2.63117647,6.77188235 C1.96658824,6.75088235 1.34029412,6.56805882 0.794294118,6.26541176 L0.794294118,6.31482353 C0.794294118,8.27894118 2.19017647,9.91941176 4.04682353,10.2924706 C3.70588235,10.3838824 3.34764706,10.4332941 2.97829412,10.4332941 C2.71888235,10.4332941 2.46441176,10.4085882 2.21611765,10.3616471 C2.73247059,11.9724706 4.22964706,13.1447647 6.00476471,13.1781176 C4.61629412,14.2651765 2.86711765,14.9124706 0.968470588,14.9124706 C0.641117647,14.9124706 0.318705882,14.8939412 0.00123529412,14.8568824 C1.79611765,16.0057059 3.927,16.6777059 6.21723529,16.6777059 C13.6759412,16.6777059 17.7548824,10.5012353 17.7548824,5.14252941 C17.7548824,4.96588235 17.7499412,4.79170588 17.7425294,4.61752941 C18.5331176,4.04558824 19.2224118,3.33282353 19.7659412,2.51752941 L19.7647059,2.51752941 Z" id="Shape"></path>
                </g>
            </g>
        </g>
    </g>
</svg>