<?xml version="1.0" encoding="UTF-8" standalone="no"?>
<svg width="19px" height="19px" viewBox="0 0 19 19" version="1.1" xmlns="http://www.w3.org/2000/svg" xmlns:xlink="http://www.w3.org/1999/xlink">
    <!-- Generator: Sketch 3.8.3 (29802) - http://www.bohemiancoding.com/sketch -->
    <title>facebook</title>
    <desc>Created with Sketch.</desc>
    <defs></defs>
    <g id="Page-1" stroke="none" stroke-width="1" fill="none" fill-rule="evenodd">
        <g id="Artboard-1-Copy" transform="translate(-1157.000000, -1137.000000)" fill="#000000">
            <g id="Group" transform="translate(1050.000000, 1136.000000)">
                <g id="facebook" transform="translate(107.000000, 1.000000)">
                    <path d="M17.9514375,0 L1.0485625,0 C0.4690625,0 0,0.4690625 0,1.0485625 L0,17.9514375 C0,18.5309375 0.4690625,19 1.0485625,19 L10.148375,19 L10.148375,11.64225 L7.67125,11.64225 L7.67125,8.775625 L10.148375,8.775625 L10.148375,6.6583125 C10.148375,4.2049375 11.647,2.8701875 13.83675,2.8701875 C14.8853125,2.8701875 15.786625,2.9461875 16.0490625,2.9818125 L16.0490625,5.5468125 L14.5290625,5.5468125 C13.3415625,5.5468125 13.11,6.1120625 13.11,6.9433125 L13.11,8.7720625 L15.948125,8.7720625 L15.58,11.6410625 L13.11,11.6410625 L13.11,19 L17.9514375,19 C18.5309375,19 19,18.5309375 19,17.9514375 L19,1.0485625 C19,0.4690625 18.5309375,0 17.9514375,0" id="Shape"></path>
                </g>
            </g>
        </g>
    </g>
</svg>