<?xml version="1.0" encoding="UTF-8" standalone="no"?>
<svg width="20px" height="20px" viewBox="0 0 20 20" version="1.1" xmlns="http://www.w3.org/2000/svg" xmlns:xlink="http://www.w3.org/1999/xlink">
    <!-- Generator: Sketch 3.8.3 (29802) - http://www.bohemiancoding.com/sketch -->
    <title>pinterest</title>
    <desc>Created with Sketch.</desc>
    <defs></defs>
    <g id="Page-1" stroke="none" stroke-width="1" fill="none" fill-rule="evenodd">
        <g id="Artboard-1-Copy" transform="translate(-1050.000000, -1136.000000)" fill="#000000">
            <g id="Group" transform="translate(1050.000000, 1136.000000)">
                <g id="pinterest">
                    <path d="M9.88235294,0 C4.42482353,0 0,4.42482353 0,9.88235294 C0,14.07 2.604,17.6461765 6.28023529,19.0852941 C6.19376471,18.3033529 6.11594118,17.1038824 6.31482353,16.2502941 C6.49517647,15.4782353 7.47352941,11.3375294 7.47352941,11.3375294 C7.47352941,11.3375294 7.17705882,10.7445882 7.17705882,9.87 C7.17705882,8.49882353 7.97505882,7.46982353 8.96576471,7.46982353 C9.80947059,7.46982353 10.2158824,8.10352941 10.2158824,8.862 C10.2158824,9.71064706 9.67729412,10.9780588 9.39811765,12.1528235 C9.16341176,13.1373529 9.89223529,13.9378235 10.8619412,13.9378235 C12.6160588,13.9378235 13.9674706,12.0873529 13.9674706,9.41417647 C13.9674706,7.04858824 12.2677059,5.39452941 9.83911765,5.39452941 C7.02758824,5.39452941 5.37970588,7.50317647 5.37970588,9.68347059 C5.37970588,10.5321176 5.70458824,11.4425294 6.11223529,11.9378824 C6.19376471,12.0367059 6.20488235,12.1231765 6.18264706,12.222 C6.10852941,12.5332941 5.94052941,13.2052941 5.90717647,13.3424118 C5.86394118,13.5227647 5.76511765,13.5622941 5.57611765,13.4745882 C4.34329412,12.9001765 3.57,11.0954118 3.57,9.64517647 C3.57,6.52729412 5.83552941,3.66635294 10.101,3.66635294 C13.5277059,3.66635294 16.1934706,6.10852941 16.1934706,9.37341176 C16.1934706,12.7791176 14.0440588,15.5214706 11.0632941,15.5214706 C10.0627059,15.5214706 9.12141176,15.0001765 8.799,14.385 L8.18135294,16.7345294 C7.959,17.5930588 7.35741176,18.669 6.95347059,19.3249412 C7.87994118,19.6115294 8.862,19.7659412 9.88111765,19.7659412 C15.3374118,19.7659412 19.7634706,15.3411176 19.7634706,9.88358824 C19.7634706,4.42605882 15.3374118,0.00123529412 9.88111765,0.00123529412 L9.88235294,0 Z" id="Shape"></path>
                </g>
            </g>
        </g>
    </g>
</svg>