<?xml version="1.0" encoding="UTF-8" standalone="no"?>
<svg width="22px" height="14px" viewBox="0 0 22 14" version="1.1" xmlns="http://www.w3.org/2000/svg" xmlns:xlink="http://www.w3.org/1999/xlink">
    <!-- Generator: Sketch 3.8.3 (29802) - http://www.bohemiancoding.com/sketch -->
    <title>googleplus</title>
    <desc>Created with Sketch.</desc>
    <defs></defs>
    <g id="Page-1" stroke="none" stroke-width="1" fill="none" fill-rule="evenodd">
        <g id="Artboard-1-Copy" transform="translate(-1121.000000, -1140.000000)" fill="#000000">
            <g id="Group" transform="translate(1050.000000, 1136.000000)">
                <g id="googleplus" transform="translate(71.000000, 4.000000)">
                    <path d="M6.78666667,6.03066667 L6.78666667,8.35733333 L10.64,8.35733333 C10.4853333,9.35733333 9.476,11.2866667 6.79066667,11.2866667 C4.47466667,11.2866667 2.584,9.36666667 2.584,7 C2.584,4.63333333 4.47066667,2.71333333 6.78666667,2.71333333 C8.10666667,2.71333333 8.98933333,3.276 9.49333333,3.76133333 L11.336,1.988 C10.1533333,0.881333333 8.62,0.214666667 6.78933333,0.214666667 C3.03333333,0.213333333 0,3.24533333 0,7 C0,10.7546667 3.03466667,13.7866667 6.78666667,13.7866667 C10.7066667,13.7866667 13.304,11.0333333 13.304,7.15466667 C13.304,6.70933333 13.256,6.368 13.1973333,6.03066667 L6.78666667,6.03066667 L6.78666667,6.03066667 Z M21.3333333,6.03066667 L19.3933333,6.03066667 L19.3933333,4.09066667 L17.4533333,4.09066667 L17.4533333,6.03066667 L15.5146667,6.03066667 L15.5146667,7.96933333 L17.4546667,7.96933333 L17.4546667,9.90933333 L19.3946667,9.90933333 L19.3946667,7.96933333 L21.3333333,7.96933333 L21.3333333,6.03066667 Z" id="Shape"></path>
                </g>
            </g>
        </g>
    </g>
</svg>