<?xml version="1.0" encoding="UTF-8"?>
<svg width="261px" height="40px" viewBox="0 0 261 40" version="1.1" xmlns="http://www.w3.org/2000/svg" xmlns:xlink="http://www.w3.org/1999/xlink">
    <!-- Generator: Sketch 46.2 (44496) - http://www.bohemiancoding.com/sketch -->
    <title>MILLER | ROODELL ARC</title>
    <desc>Created with Sketch.</desc>
    <defs></defs>
    <g id="Splash" stroke="none" stroke-width="1" fill="none" fill-rule="evenodd">
        <g transform="translate(-571.000000, -48.000000)" id="MILLER-|-ROODELL-ARC" fill="#FFFFFF">
            <path d="M572.3755,50.707 C572.3755,50.875 572.5855,51.022 572.7325,51.064 L573.6355,51.295 C574.4965,51.547 574.5385,52.345 574.5385,52.534 C574.4965,54.172 574.0345,60.01 573.8455,61.48 C573.6565,62.74 573.5095,63.076 572.2285,63.454 C571.9555,63.538 571.7875,63.664 571.7875,63.769 C571.7875,64.021 572.0395,64.063 572.3545,64.063 C572.8585,64.063 573.5515,64 574.0765,64 C574.6225,64 575.4625,64.063 576.1345,64.063 C576.4705,64.063 576.7015,63.979 576.7015,63.811 C576.7015,63.622 576.5965,63.517 576.1555,63.391 C575.0845,63.076 574.8955,62.761 574.8745,61.669 C574.7905,59.674 575.0215,54.718 575.1895,53.71 C575.2105,53.521 575.2735,53.521 575.3365,53.647 C576.0295,55.243 577.7725,58.687 578.8855,61.438 C579.3055,62.425 579.5365,63.16 579.6625,63.643 C579.7465,63.874 579.8935,64.063 580.0195,64.063 C580.1455,64.063 580.2925,64.063 580.5235,63.454 C580.8385,62.677 581.3005,61.564 581.8045,60.451 C582.5815,58.813 584.8075,54.361 585.1435,53.773 C585.2485,53.563 585.3535,53.689 585.3535,53.857 C585.3955,54.907 585.4165,60.871 585.3325,61.837 C585.2695,62.614 585.2485,63.139 584.3875,63.37 C584.0935,63.454 583.8205,63.58 583.8205,63.769 C583.8205,63.979 584.1355,64.063 584.4085,64.063 C584.8915,64.063 585.6895,64 586.0675,64 C586.8445,64 588.5455,64.105 588.7765,64.105 C589.0915,64.105 589.3855,64 589.3855,63.811 C589.3855,63.664 589.1965,63.517 588.8185,63.412 C587.7895,63.118 587.5795,62.887 587.4535,62.005 C587.3695,61.291 587.1805,58.33 587.1805,52.975 C587.1805,51.883 587.4745,51.484 587.8105,51.358 C588.1045,51.211 588.4195,51.127 588.7555,51.064 C589.1125,50.98 589.3015,50.854 589.3015,50.707 C589.3015,50.518 589.0075,50.476 588.7345,50.476 C588.5455,50.476 586.8655,50.539 585.9625,50.539 C585.8995,50.539 585.7525,50.749 585.7315,50.833 C585.5845,51.253 585.2485,52.009 585.2065,52.135 C584.8075,53.164 581.2165,60.01 580.9645,60.493 C580.9225,60.535 580.7755,60.472 580.7545,60.409 C580.4395,59.989 578.0875,55.138 576.9325,52.723 C576.5125,51.841 576.3865,51.568 576.1555,50.833 C576.1135,50.728 575.9665,50.539 575.9035,50.539 C574.6015,50.539 574.3285,50.497 572.9845,50.497 C572.5225,50.497 572.3755,50.518 572.3755,50.707 Z M597.705,57.112 C597.705,58.897 597.663,61.081 597.6,61.837 C597.516,62.803 597.432,63.139 596.403,63.37 C595.962,63.454 595.773,63.58 595.773,63.727 C595.773,63.895 595.92,64.042 596.34,64.042 C597.117,64.042 597.39,64 598.02,64 C598.65,64 600.12,64.126 601.149,64.126 C601.401,64.126 601.737,64.021 601.737,63.853 C601.737,63.685 601.548,63.559 601.17,63.475 C599.847,63.202 599.763,62.824 599.679,61.669 C599.637,60.997 599.616,59.779 599.616,58.351 C599.616,54.319 599.658,53.101 599.742,52.429 C599.805,51.862 599.826,51.337 601.002,51.106 C601.338,51.043 601.548,50.917 601.548,50.749 C601.548,50.56 601.359,50.476 601.002,50.476 C600.267,50.476 599.742,50.539 598.713,50.539 C598.02,50.539 596.949,50.476 596.403,50.476 C596.067,50.476 595.836,50.581 595.836,50.749 C595.836,50.875 595.962,51.022 596.445,51.127 C597.579,51.337 597.579,51.652 597.642,52.639 C597.684,53.353 597.705,55.873 597.705,57.112 Z M608.2085,50.77 C608.2085,50.917 608.3765,51.064 608.7965,51.148 C609.7835,51.358 609.9095,51.757 609.9095,52.261 C609.9305,52.954 609.9305,54.277 609.9305,55.369 C609.9305,58.393 609.8885,61.501 609.8255,62.026 C609.7205,62.866 609.4475,63.265 608.2925,63.475 C607.9565,63.538 607.7885,63.727 607.7885,63.874 C607.7885,64.063 608.0195,64.105 608.3975,64.105 C608.7755,64.105 609.8465,64 611.1905,64 C615.4745,64 617.3645,64.126 617.6165,64.126 C617.7005,64.126 618.0995,63.979 618.1415,63.769 C618.2885,63.013 618.4775,62.425 618.7715,61.459 C618.8555,61.123 618.8135,60.892 618.6875,60.892 C618.5825,60.892 618.3935,60.997 618.1625,61.333 C617.6165,62.173 617.2175,62.509 616.9235,62.803 C616.5665,63.139 616.3145,63.16 616.1465,63.181 C615.8105,63.223 615.2015,63.244 614.6345,63.244 C613.9835,63.244 613.2065,63.244 612.7025,63.139 C612.5345,63.118 612.0095,62.677 611.9675,62.341 C611.8835,61.648 611.8205,59.695 611.8205,58.099 C611.8205,54.991 611.8415,52.87 611.9675,51.883 C612.0095,51.589 612.1565,51.337 613.3325,51.064 C613.6475,51.001 613.8155,50.854 613.8155,50.707 C613.8155,50.56 613.6685,50.476 613.2695,50.476 C612.7655,50.476 611.3375,50.539 610.5185,50.539 C609.9095,50.539 609.4055,50.497 608.8385,50.497 C608.3975,50.497 608.2085,50.602 608.2085,50.77 Z M625.117,50.77 C625.117,50.917 625.285,51.064 625.705,51.148 C626.692,51.358 626.818,51.757 626.818,52.261 C626.839,52.954 626.839,54.277 626.839,55.369 C626.839,58.393 626.797,61.501 626.734,62.026 C626.629,62.866 626.356,63.265 625.201,63.475 C624.865,63.538 624.697,63.727 624.697,63.874 C624.697,64.063 624.928,64.105 625.306,64.105 C625.684,64.105 626.755,64 628.099,64 C632.383,64 634.273,64.126 634.525,64.126 C634.609,64.126 635.008,63.979 635.05,63.769 C635.197,63.013 635.386,62.425 635.68,61.459 C635.764,61.123 635.722,60.892 635.596,60.892 C635.491,60.892 635.302,60.997 635.071,61.333 C634.525,62.173 634.126,62.509 633.832,62.803 C633.475,63.139 633.223,63.16 633.055,63.181 C632.719,63.223 632.11,63.244 631.543,63.244 C630.892,63.244 630.115,63.244 629.611,63.139 C629.443,63.118 628.918,62.677 628.876,62.341 C628.792,61.648 628.729,59.695 628.729,58.099 C628.729,54.991 628.75,52.87 628.876,51.883 C628.918,51.589 629.065,51.337 630.241,51.064 C630.556,51.001 630.724,50.854 630.724,50.707 C630.724,50.56 630.577,50.476 630.178,50.476 C629.674,50.476 628.246,50.539 627.427,50.539 C626.818,50.539 626.314,50.497 625.747,50.497 C625.306,50.497 625.117,50.602 625.117,50.77 Z M645.8685,50.539 C644.5455,50.539 643.5375,50.476 642.5505,50.476 C642.2565,50.476 641.9415,50.581 641.9415,50.77 C641.9415,50.938 642.1305,51.022 642.5715,51.127 C643.4745,51.316 643.6845,51.61 643.7475,52.492 C643.7895,53.101 643.7475,53.647 643.7475,56.167 C643.7475,58.771 643.6635,61.06 643.6005,61.921 C643.5165,63.055 643.1385,63.244 642.0675,63.475 C641.7315,63.559 641.4795,63.664 641.4795,63.832 C641.4795,64.063 641.7315,64.105 642.1305,64.105 C642.9075,64.105 643.3275,64 644.4825,64 C647.5275,64 651.1185,64.147 651.3495,64.147 C651.4545,64.147 651.6855,64 651.7485,63.916 C651.8955,63.685 652.5045,61.795 652.5045,61.627 C652.5465,61.396 652.5045,61.039 652.3365,61.039 C652.2105,61.039 652.0635,61.165 651.8115,61.648 C651.3285,62.614 650.7615,63.013 650.1105,63.202 C649.6275,63.349 648.4515,63.37 648.1155,63.37 C647.3175,63.37 646.6035,63.286 646.2465,63.223 C646.0995,63.181 645.9315,62.992 645.8265,62.74 C645.7215,62.404 645.6585,61.606 645.6585,61.018 C645.6585,60.157 645.6375,58.267 645.7215,57.784 C645.7215,57.742 645.8265,57.595 645.9105,57.595 C646.4985,57.595 647.3385,57.595 648.0105,57.637 C649.1865,57.7 649.3125,57.784 649.6065,58.75 C649.6695,58.96 649.8165,59.191 649.9635,59.191 C650.1315,59.191 650.2155,58.981 650.2155,58.603 C650.1945,58.141 650.1525,57.847 650.1525,57.28 C650.1525,56.776 650.1735,56.356 650.2155,55.789 C650.2365,55.6 650.1945,55.285 650.0265,55.285 C649.9005,55.285 649.7535,55.432 649.6275,55.747 C649.2495,56.713 649.2075,56.776 647.3175,56.776 L645.9105,56.776 C645.7845,56.776 645.7425,56.671 645.7215,56.587 C645.7005,56.104 645.7635,52.345 645.8055,51.841 C645.8265,51.337 646.0575,51.232 646.0995,51.232 C647.1705,51.211 648.5775,51.253 649.0815,51.337 C649.7115,51.442 650.1945,51.673 650.4675,52.786 C650.5095,53.017 650.6355,53.311 650.8035,53.311 C650.9925,53.311 651.1395,53.038 651.1395,52.744 C651.1395,52.324 651.0975,51.547 651.0975,50.707 C651.0765,50.602 650.9715,50.434 650.9085,50.455 C650.5725,50.518 649.6695,50.539 648.9765,50.539 L645.8685,50.539 Z M668.678,53.92 C668.678,55.054 668.048,56.146 667.04,56.797 C666.935,56.881 666.515,57.07 666.347,57.175 C666.263,57.217 666.221,57.427 666.263,57.49 C666.515,58.057 668.279,60.913 669.497,62.299 C670.064,62.971 670.652,63.328 671.513,63.517 C671.702,63.559 671.87,63.727 671.87,63.811 C671.87,63.916 671.681,64.021 671.555,64.063 C671.282,64.189 670.736,64.231 670.337,64.231 C669.161,64.231 668.048,63.601 667.481,62.866 C666.767,61.9 665.696,60.262 664.856,58.897 C664.562,58.477 664.184,57.952 664.058,57.889 C663.932,57.784 663.239,57.616 662.651,57.616 C662.525,57.616 662.42,57.784 662.399,57.847 C662.378,58.225 662.42,60.913 662.483,62.068 C662.525,62.971 662.735,63.244 663.743,63.496 C664.1,63.58 664.247,63.748 664.247,63.832 C664.247,64.063 663.848,64.126 663.701,64.126 C662.861,64.126 662.336,64 660.992,64 C660.551,64 659.459,64.084 659.228,64.084 C658.913,64.084 658.661,63.979 658.661,63.769 C658.661,63.622 658.85,63.559 659.123,63.454 C660.068,63.16 660.404,63.013 660.467,62.236 C660.53,61.396 660.593,59.275 660.593,57.889 C660.593,54.865 660.572,52.975 660.467,52.198 C660.404,51.505 660.215,51.379 659.249,51.148 C658.934,51.085 658.745,50.959 658.745,50.791 C658.745,50.644 658.892,50.539 659.312,50.539 L660.572,50.539 C661.349,50.539 662.882,50.434 664.016,50.434 C665.36,50.434 666.62,50.602 667.502,51.337 C668.174,51.883 668.678,52.933 668.678,53.92 Z M666.662,54.004 C666.662,53.479 666.368,52.513 665.738,51.883 C665.234,51.4 664.373,51.085 663.722,51.085 C663.617,51.085 662.987,51.127 662.756,51.232 C662.651,51.274 662.504,51.61 662.504,51.673 C662.441,52.429 662.378,56.377 662.441,56.797 C662.483,56.944 662.651,57.091 662.756,57.091 C663.953,57.091 665.045,56.734 665.318,56.566 C665.885,56.188 666.662,55.306 666.662,54.004 Z M687.102,48.397 L687.102,69.208 L688.425,69.208 L688.425,48.397 L687.102,48.397 Z M715.06,53.92 C715.06,55.054 714.43,56.146 713.422,56.797 C713.317,56.881 712.897,57.07 712.729,57.175 C712.645,57.217 712.603,57.427 712.645,57.49 C712.897,58.057 714.661,60.913 715.879,62.299 C716.446,62.971 717.034,63.328 717.895,63.517 C718.084,63.559 718.252,63.727 718.252,63.811 C718.252,63.916 718.063,64.021 717.937,64.063 C717.664,64.189 717.118,64.231 716.719,64.231 C715.543,64.231 714.43,63.601 713.863,62.866 C713.149,61.9 712.078,60.262 711.238,58.897 C710.944,58.477 710.566,57.952 710.44,57.889 C710.314,57.784 709.621,57.616 709.033,57.616 C708.907,57.616 708.802,57.784 708.781,57.847 C708.76,58.225 708.802,60.913 708.865,62.068 C708.907,62.971 709.117,63.244 710.125,63.496 C710.482,63.58 710.629,63.748 710.629,63.832 C710.629,64.063 710.23,64.126 710.083,64.126 C709.243,64.126 708.718,64 707.374,64 C706.933,64 705.841,64.084 705.61,64.084 C705.295,64.084 705.043,63.979 705.043,63.769 C705.043,63.622 705.232,63.559 705.505,63.454 C706.45,63.16 706.786,63.013 706.849,62.236 C706.912,61.396 706.975,59.275 706.975,57.889 C706.975,54.865 706.954,52.975 706.849,52.198 C706.786,51.505 706.597,51.379 705.631,51.148 C705.316,51.085 705.127,50.959 705.127,50.791 C705.127,50.644 705.274,50.539 705.694,50.539 L706.954,50.539 C707.731,50.539 709.264,50.434 710.398,50.434 C711.742,50.434 713.002,50.602 713.884,51.337 C714.556,51.883 715.06,52.933 715.06,53.92 Z M713.044,54.004 C713.044,53.479 712.75,52.513 712.12,51.883 C711.616,51.4 710.755,51.085 710.104,51.085 C709.999,51.085 709.369,51.127 709.138,51.232 C709.033,51.274 708.886,51.61 708.886,51.673 C708.823,52.429 708.76,56.377 708.823,56.797 C708.865,56.944 709.033,57.091 709.138,57.091 C710.335,57.091 711.427,56.734 711.7,56.566 C712.267,56.188 713.044,55.306 713.044,54.004 Z M730.4355,50.182 C734.5935,50.182 737.7225,53.227 737.7225,57.091 C737.7225,59.989 736.3365,61.984 734.8035,63.097 C733.5225,64.021 731.7585,64.378 730.5825,64.378 C728.4195,64.378 726.4035,63.454 725.1225,62.005 C723.9885,60.787 723.3585,59.086 723.3585,57.238 C723.3585,54.676 724.5135,52.933 726.0885,51.652 C727.0965,50.833 728.8815,50.182 730.4355,50.182 Z M729.9525,50.875 C729.0495,50.875 727.8525,51.358 727.1805,52.03 C726.2775,52.891 725.5845,54.466 725.5845,56.944 C725.5845,60.073 727.8105,63.643 731.0865,63.643 C732.7245,63.643 733.5225,62.929 733.7325,62.677 C734.5935,61.879 735.4965,60.178 735.4965,57.721 C735.4965,55.579 734.5725,53.29 733.0185,52.009 C732.1995,51.316 730.9185,50.875 729.9525,50.875 Z M752.006,50.182 C756.164,50.182 759.293,53.227 759.293,57.091 C759.293,59.989 757.907,61.984 756.374,63.097 C755.093,64.021 753.329,64.378 752.153,64.378 C749.99,64.378 747.974,63.454 746.693,62.005 C745.559,60.787 744.929,59.086 744.929,57.238 C744.929,54.676 746.084,52.933 747.659,51.652 C748.667,50.833 750.452,50.182 752.006,50.182 Z M751.523,50.875 C750.62,50.875 749.423,51.358 748.751,52.03 C747.848,52.891 747.155,54.466 747.155,56.944 C747.155,60.073 749.381,63.643 752.657,63.643 C754.295,63.643 755.093,62.929 755.303,62.677 C756.164,61.879 757.067,60.178 757.067,57.721 C757.067,55.579 756.143,53.29 754.589,52.009 C753.77,51.316 752.489,50.875 751.523,50.875 Z M772.4635,50.371 C775.4035,50.371 777.3985,51.61 778.2385,52.387 C779.3725,53.479 780.1705,55.348 780.1705,57.007 C780.1705,60.052 778.2805,62.236 776.8315,63.055 C775.5925,63.769 773.8285,64.21 771.8545,64.21 C770.9935,64.21 769.0825,64.147 767.7175,64.063 C767.2765,64.042 766.8775,64.042 766.5415,64.042 C766.0795,64.042 765.8695,63.895 765.8695,63.727 C765.8695,63.559 766.0795,63.433 766.3525,63.412 C767.7595,63.244 767.8645,62.866 767.9275,61.144 C767.9695,60.136 767.9905,59.443 767.9905,58.288 C767.9905,57.091 767.9695,54.655 767.8855,52.996 C767.8435,51.652 767.8225,51.337 766.5625,51.148 C766.3315,51.106 766.0795,50.98 766.0795,50.833 C766.0795,50.665 766.2895,50.539 766.6045,50.539 L767.2975,50.539 C768.3475,50.539 770.7205,50.371 772.4635,50.371 Z M771.5395,51.022 C770.8465,51.022 770.3635,51.085 770.1745,51.211 C770.0275,51.316 769.9855,51.379 769.9645,51.484 C769.9225,51.799 769.8805,53.542 769.8805,55.411 L769.8805,58.456 C769.8805,59.905 769.9015,61.144 769.9645,62.068 C770.0275,62.656 770.3425,62.95 770.4265,63.034 C770.8045,63.307 771.6445,63.58 772.0855,63.58 C773.0095,63.58 774.6685,63.223 775.8445,62.236 C777.1045,61.165 777.9655,59.296 777.9655,57.028 C777.9655,55.285 777.1255,53.353 775.8235,52.303 C774.8155,51.505 773.0935,51.022 771.5395,51.022 Z M790.947,50.539 C789.624,50.539 788.616,50.476 787.629,50.476 C787.335,50.476 787.02,50.581 787.02,50.77 C787.02,50.938 787.209,51.022 787.65,51.127 C788.553,51.316 788.763,51.61 788.826,52.492 C788.868,53.101 788.826,53.647 788.826,56.167 C788.826,58.771 788.742,61.06 788.679,61.921 C788.595,63.055 788.217,63.244 787.146,63.475 C786.81,63.559 786.558,63.664 786.558,63.832 C786.558,64.063 786.81,64.105 787.209,64.105 C787.986,64.105 788.406,64 789.561,64 C792.606,64 796.197,64.147 796.428,64.147 C796.533,64.147 796.764,64 796.827,63.916 C796.974,63.685 797.583,61.795 797.583,61.627 C797.625,61.396 797.583,61.039 797.415,61.039 C797.289,61.039 797.142,61.165 796.89,61.648 C796.407,62.614 795.84,63.013 795.189,63.202 C794.706,63.349 793.53,63.37 793.194,63.37 C792.396,63.37 791.682,63.286 791.325,63.223 C791.178,63.181 791.01,62.992 790.905,62.74 C790.8,62.404 790.737,61.606 790.737,61.018 C790.737,60.157 790.716,58.267 790.8,57.784 C790.8,57.742 790.905,57.595 790.989,57.595 C791.577,57.595 792.417,57.595 793.089,57.637 C794.265,57.7 794.391,57.784 794.685,58.75 C794.748,58.96 794.895,59.191 795.042,59.191 C795.21,59.191 795.294,58.981 795.294,58.603 C795.273,58.141 795.231,57.847 795.231,57.28 C795.231,56.776 795.252,56.356 795.294,55.789 C795.315,55.6 795.273,55.285 795.105,55.285 C794.979,55.285 794.832,55.432 794.706,55.747 C794.328,56.713 794.286,56.776 792.396,56.776 L790.989,56.776 C790.863,56.776 790.821,56.671 790.8,56.587 C790.779,56.104 790.842,52.345 790.884,51.841 C790.905,51.337 791.136,51.232 791.178,51.232 C792.249,51.211 793.656,51.253 794.16,51.337 C794.79,51.442 795.273,51.673 795.546,52.786 C795.588,53.017 795.714,53.311 795.882,53.311 C796.071,53.311 796.218,53.038 796.218,52.744 C796.218,52.324 796.176,51.547 796.176,50.707 C796.155,50.602 796.05,50.434 795.987,50.455 C795.651,50.518 794.748,50.539 794.055,50.539 L790.947,50.539 Z M803.9285,50.77 C803.9285,50.917 804.0965,51.064 804.5165,51.148 C805.5035,51.358 805.6295,51.757 805.6295,52.261 C805.6505,52.954 805.6505,54.277 805.6505,55.369 C805.6505,58.393 805.6085,61.501 805.5455,62.026 C805.4405,62.866 805.1675,63.265 804.0125,63.475 C803.6765,63.538 803.5085,63.727 803.5085,63.874 C803.5085,64.063 803.7395,64.105 804.1175,64.105 C804.4955,64.105 805.5665,64 806.9105,64 C811.1945,64 813.0845,64.126 813.3365,64.126 C813.4205,64.126 813.8195,63.979 813.8615,63.769 C814.0085,63.013 814.1975,62.425 814.4915,61.459 C814.5755,61.123 814.5335,60.892 814.4075,60.892 C814.3025,60.892 814.1135,60.997 813.8825,61.333 C813.3365,62.173 812.9375,62.509 812.6435,62.803 C812.2865,63.139 812.0345,63.16 811.8665,63.181 C811.5305,63.223 810.9215,63.244 810.3545,63.244 C809.7035,63.244 808.9265,63.244 808.4225,63.139 C808.2545,63.118 807.7295,62.677 807.6875,62.341 C807.6035,61.648 807.5405,59.695 807.5405,58.099 C807.5405,54.991 807.5615,52.87 807.6875,51.883 C807.7295,51.589 807.8765,51.337 809.0525,51.064 C809.3675,51.001 809.5355,50.854 809.5355,50.707 C809.5355,50.56 809.3885,50.476 808.9895,50.476 C808.4855,50.476 807.0575,50.539 806.2385,50.539 C805.6295,50.539 805.1255,50.497 804.5585,50.497 C804.1175,50.497 803.9285,50.602 803.9285,50.77 Z M820.837,50.77 C820.837,50.917 821.005,51.064 821.425,51.148 C822.412,51.358 822.538,51.757 822.538,52.261 C822.559,52.954 822.559,54.277 822.559,55.369 C822.559,58.393 822.517,61.501 822.454,62.026 C822.349,62.866 822.076,63.265 820.921,63.475 C820.585,63.538 820.417,63.727 820.417,63.874 C820.417,64.063 820.648,64.105 821.026,64.105 C821.404,64.105 822.475,64 823.819,64 C828.103,64 829.993,64.126 830.245,64.126 C830.329,64.126 830.728,63.979 830.77,63.769 C830.917,63.013 831.106,62.425 831.4,61.459 C831.484,61.123 831.442,60.892 831.316,60.892 C831.211,60.892 831.022,60.997 830.791,61.333 C830.245,62.173 829.846,62.509 829.552,62.803 C829.195,63.139 828.943,63.16 828.775,63.181 C828.439,63.223 827.83,63.244 827.263,63.244 C826.612,63.244 825.835,63.244 825.331,63.139 C825.163,63.118 824.638,62.677 824.596,62.341 C824.512,61.648 824.449,59.695 824.449,58.099 C824.449,54.991 824.47,52.87 824.596,51.883 C824.638,51.589 824.785,51.337 825.961,51.064 C826.276,51.001 826.444,50.854 826.444,50.707 C826.444,50.56 826.297,50.476 825.898,50.476 C825.394,50.476 823.966,50.539 823.147,50.539 C822.538,50.539 822.034,50.497 821.467,50.497 C821.026,50.497 820.837,50.602 820.837,50.77 Z M643.401,78.446 C643.453,78.446 643.505,78.485 643.596,78.758 C643.713,79.109 643.934,79.707 644.168,80.344 C644.857,82.268 645.819,84.803 646.04,85.362 C646.469,86.415 646.69,86.519 647.249,86.675 C647.457,86.727 647.574,86.792 647.574,86.883 C647.574,86.974 647.47,87.065 647.145,87.065 C646.742,87.065 646.027,87 645.494,87 C645.065,87 644.831,87.026 644.493,87.026 C644.181,87.026 644.09,86.935 644.09,86.857 C644.09,86.792 644.168,86.688 644.415,86.649 C645.013,86.532 644.974,86.272 644.935,86.012 C644.844,85.518 644.519,84.686 644.22,83.854 C644.207,83.802 644.142,83.711 643.817,83.711 C642.959,83.711 641.932,83.737 641.672,83.763 C641.62,83.763 641.555,83.841 641.529,83.88 C641.165,84.764 640.866,85.752 640.866,86.064 C640.866,86.233 640.944,86.454 641.516,86.623 C641.737,86.688 641.867,86.766 641.867,86.87 C641.867,86.987 641.672,87.039 641.49,87.039 C641.269,87.039 640.944,87 640.463,87 C639.982,87 639.319,87.065 639.124,87.065 C638.877,87.065 638.812,87 638.812,86.922 C638.812,86.844 638.89,86.727 639.111,86.662 C639.761,86.454 639.93,86.389 640.294,85.557 C640.606,84.894 642.062,81.007 642.608,79.707 L642.725,79.382 C642.738,79.343 642.764,79.265 642.816,79.174 L643.18,78.615 C643.271,78.498 643.336,78.446 643.401,78.446 Z M643.908,83.126 C643.921,83.126 643.947,83.061 643.934,83.009 C643.726,82.372 643.076,80.487 642.946,80.253 C642.907,80.175 642.868,80.175 642.829,80.266 C642.595,80.89 641.932,82.671 641.828,83.061 C641.815,83.113 641.854,83.152 641.906,83.152 C642.413,83.139 643.466,83.152 643.908,83.126 Z M659.1855,80.76 C659.1855,81.462 658.7955,82.138 658.1715,82.541 C658.1065,82.593 657.8465,82.71 657.7425,82.775 C657.6905,82.801 657.6645,82.931 657.6905,82.97 C657.8465,83.321 658.9385,85.089 659.6925,85.947 C660.0435,86.363 660.4075,86.584 660.9405,86.701 C661.0575,86.727 661.1615,86.831 661.1615,86.883 C661.1615,86.948 661.0445,87.013 660.9665,87.039 C660.7975,87.117 660.4595,87.143 660.2125,87.143 C659.4845,87.143 658.7955,86.753 658.4445,86.298 C658.0025,85.7 657.3395,84.686 656.8195,83.841 C656.6375,83.581 656.4035,83.256 656.3255,83.217 C656.2475,83.152 655.8185,83.048 655.4545,83.048 C655.3765,83.048 655.3115,83.152 655.2985,83.191 C655.2855,83.425 655.3115,85.089 655.3505,85.804 C655.3765,86.363 655.5065,86.532 656.1305,86.688 C656.3515,86.74 656.4425,86.844 656.4425,86.896 C656.4425,87.039 656.1955,87.078 656.1045,87.078 C655.5845,87.078 655.2595,87 654.4275,87 C654.1545,87 653.4785,87.052 653.3355,87.052 C653.1405,87.052 652.9845,86.987 652.9845,86.857 C652.9845,86.766 653.1015,86.727 653.2705,86.662 C653.8555,86.48 654.0635,86.389 654.1025,85.908 C654.1415,85.388 654.1805,84.075 654.1805,83.217 C654.1805,81.345 654.1675,80.175 654.1025,79.694 C654.0635,79.265 653.9465,79.187 653.3485,79.044 C653.1535,79.005 653.0365,78.927 653.0365,78.823 C653.0365,78.732 653.1275,78.667 653.3875,78.667 L654.1675,78.667 C654.6485,78.667 655.5975,78.602 656.2995,78.602 C657.1315,78.602 657.9115,78.706 658.4575,79.161 C658.8735,79.499 659.1855,80.149 659.1855,80.76 Z M657.9375,80.812 C657.9375,80.487 657.7555,79.889 657.3655,79.499 C657.0535,79.2 656.5205,79.005 656.1175,79.005 C656.0525,79.005 655.6625,79.031 655.5195,79.096 C655.4545,79.122 655.3635,79.33 655.3635,79.369 C655.3245,79.837 655.2855,82.281 655.3245,82.541 C655.3505,82.632 655.4545,82.723 655.5195,82.723 C656.2605,82.723 656.9365,82.502 657.1055,82.398 C657.4565,82.164 657.9375,81.618 657.9375,80.812 Z M671.109,78.446 C669.939,78.446 668.704,78.719 667.599,79.629 C667.04,80.084 666.156,81.254 666.156,82.749 C666.156,84.218 666.754,85.154 667.248,85.726 C667.768,86.337 669.12,87.234 670.966,87.234 C672.097,87.234 673.111,86.948 673.319,86.87 C673.462,86.792 673.683,86.636 673.735,86.519 C673.904,86.22 674.177,85.57 674.229,85.232 C674.255,85.089 674.255,84.803 674.112,84.803 C674.047,84.803 673.982,84.868 673.826,85.154 C673.514,85.7 673.176,86.103 672.63,86.402 C672.11,86.701 671.473,86.727 671.252,86.727 C670.199,86.727 668.769,86.155 668.028,84.686 C667.742,84.114 667.586,83.399 667.586,82.528 C667.586,80.565 668.847,78.849 670.927,78.849 C671.629,78.849 672.305,79.018 672.981,79.551 C673.163,79.681 673.397,80.071 673.527,80.5 C673.579,80.708 673.67,80.851 673.735,80.851 C673.852,80.851 673.943,80.682 673.93,80.409 C673.904,80.11 673.852,79.564 673.852,79.265 C673.852,78.992 673.722,78.888 673.657,78.875 C673.436,78.849 673.007,78.693 672.682,78.641 C672.188,78.537 671.59,78.446 671.109,78.446 Z M682.5645,82.242 C682.5515,82.021 682.5775,80.357 682.6035,79.915 C682.6425,79.369 682.6815,79.161 683.2665,79.044 C683.5395,78.992 683.6695,78.927 683.6695,78.797 C683.6695,78.706 683.5135,78.641 683.2405,78.641 C682.9415,78.641 682.5125,78.667 681.9665,78.667 C681.6285,78.667 681.0955,78.641 680.7315,78.641 C680.5235,78.641 680.3675,78.693 680.3675,78.797 C680.3675,78.888 680.4585,78.979 680.7445,79.044 C681.2645,79.161 681.3555,79.343 681.3815,79.772 C681.4075,80.344 681.3685,81.436 681.3685,81.696 C681.3685,83.75 681.2905,85.31 681.2515,85.843 C681.1995,86.363 681.0955,86.493 680.4455,86.662 C680.2895,86.714 680.1335,86.792 680.1335,86.909 C680.1335,87 680.2375,87.052 680.5365,87.052 C680.9785,87.052 681.5505,87 681.8495,87 C682.3175,87 683.1625,87.052 683.2535,87.052 C683.4225,87.052 683.6565,87.013 683.6565,86.909 C683.6435,86.779 683.5265,86.714 683.2405,86.636 C682.6945,86.467 682.5645,86.246 682.5645,85.635 C682.5645,85.245 682.5255,83.646 682.5645,83.282 C682.5645,83.178 682.6555,83.061 682.6945,83.048 C682.9545,83.022 685.5415,83.074 687.3485,83.074 C687.4395,83.074 687.4915,83.113 687.4915,83.334 C687.5045,83.906 687.4785,84.868 687.4525,85.427 C687.4005,86.35 687.3485,86.493 686.6725,86.688 C686.5165,86.727 686.3605,86.805 686.3605,86.922 C686.3605,87.039 686.4905,87.078 686.7115,87.078 C686.9715,87.078 687.9595,87 688.2455,87 C688.6485,87 689.1685,87.039 689.3765,87.039 C689.6235,87.039 689.7405,87 689.7405,86.883 C689.7405,86.805 689.6365,86.701 689.4415,86.636 C688.8565,86.467 688.7265,86.428 688.7135,85.921 C688.7005,85.661 688.6615,84.608 688.6615,83.893 C688.6615,81.748 688.7005,80.409 688.7655,79.746 C688.7915,79.382 688.8955,79.148 689.4155,79.018 C689.7015,78.953 689.8055,78.862 689.8055,78.784 C689.8055,78.68 689.6495,78.628 689.4285,78.628 C689.2855,78.628 688.6485,78.667 688.2065,78.667 C687.8815,78.667 687.0235,78.641 686.8545,78.641 C686.5685,78.641 686.4385,78.693 686.4385,78.784 C686.4385,78.901 686.5945,78.979 686.7895,79.031 C687.3485,79.187 687.4265,79.304 687.4785,79.772 C687.5175,80.279 687.5175,81.943 687.5045,82.112 C687.4785,82.359 687.4395,82.437 687.3615,82.437 C685.2685,82.437 683.5005,82.489 682.7075,82.489 C682.6165,82.489 682.5775,82.463 682.5645,82.242 Z M696.893,82.736 C696.893,83.841 696.867,85.193 696.828,85.661 C696.776,86.259 696.724,86.467 696.087,86.61 C695.814,86.662 695.697,86.74 695.697,86.831 C695.697,86.935 695.788,87.026 696.048,87.026 C696.529,87.026 696.698,87 697.088,87 C697.478,87 698.388,87.078 699.025,87.078 C699.181,87.078 699.389,87.013 699.389,86.909 C699.389,86.805 699.272,86.727 699.038,86.675 C698.219,86.506 698.167,86.272 698.115,85.557 C698.089,85.141 698.076,84.387 698.076,83.503 C698.076,81.007 698.102,80.253 698.154,79.837 C698.193,79.486 698.206,79.161 698.934,79.018 C699.142,78.979 699.272,78.901 699.272,78.797 C699.272,78.68 699.155,78.628 698.934,78.628 C698.479,78.628 698.154,78.667 697.517,78.667 C697.088,78.667 696.425,78.628 696.087,78.628 C695.879,78.628 695.736,78.693 695.736,78.797 C695.736,78.875 695.814,78.966 696.113,79.031 C696.815,79.161 696.815,79.356 696.854,79.967 C696.88,80.409 696.893,81.969 696.893,82.736 Z M708.9725,78.667 C707.4775,78.667 706.2945,78.628 705.9695,78.589 C705.7615,78.576 705.5405,78.394 705.5015,78.355 C705.3845,78.238 705.3585,78.147 705.2935,78.147 C705.2025,78.147 705.0985,78.29 705.0985,78.368 C705.0985,79.109 704.8385,79.863 704.8385,80.11 C704.8385,80.24 704.9035,80.396 704.9945,80.396 C705.0465,80.396 705.1245,80.383 705.2545,80.11 C705.4625,79.72 705.6055,79.499 705.6705,79.434 C705.8655,79.226 706.1515,79.135 706.5935,79.135 C706.8145,79.135 707.9195,79.161 708.1665,79.2 C708.2055,79.2 708.2835,79.278 708.2835,79.369 L708.2835,80.916 C708.2835,81.917 708.2185,84.543 708.1925,85.323 C708.1535,86.285 708.1145,86.493 707.2305,86.701 C707.1005,86.74 706.9705,86.831 706.9705,86.935 C706.9705,87.013 707.1005,87.091 707.3605,87.091 C707.5425,87.091 708.2705,87 708.8815,87 C709.4015,87 710.3375,87.065 710.4415,87.065 C710.5715,87.065 710.8055,87.039 710.8055,86.896 C710.8055,86.818 710.6365,86.701 710.4675,86.662 C709.6355,86.493 709.5705,86.298 709.5185,85.752 C709.4665,85.232 709.4535,83.971 709.4535,82.463 C709.4535,81.345 709.4665,79.993 709.4665,79.382 C709.4665,79.343 709.5185,79.226 709.5705,79.213 C709.7655,79.174 711.1175,79.174 711.3515,79.187 C712.1185,79.226 712.2875,79.291 712.3785,79.98 C712.4175,80.305 712.4825,80.396 712.5735,80.396 C712.6775,80.396 712.7815,80.253 712.7945,80.136 C712.8725,79.486 712.9505,79.031 713.0805,78.628 C713.1455,78.446 713.0805,78.329 713.0155,78.329 C712.9635,78.329 712.9115,78.368 712.8205,78.42 C712.6385,78.537 712.4175,78.615 711.9105,78.641 C711.4035,78.654 709.6615,78.667 708.9725,78.667 Z M721.195,78.667 C720.376,78.667 719.752,78.628 719.141,78.628 C718.959,78.628 718.764,78.693 718.764,78.81 C718.764,78.914 718.881,78.966 719.154,79.031 C719.713,79.148 719.843,79.33 719.882,79.876 C719.908,80.253 719.882,80.591 719.882,82.151 C719.882,83.763 719.83,85.18 719.791,85.713 C719.739,86.415 719.505,86.532 718.842,86.675 C718.634,86.727 718.478,86.792 718.478,86.896 C718.478,87.039 718.634,87.065 718.881,87.065 C719.362,87.065 719.622,87 720.337,87 C722.222,87 724.445,87.091 724.588,87.091 C724.653,87.091 724.796,87 724.835,86.948 C724.926,86.805 725.303,85.635 725.303,85.531 C725.329,85.388 725.303,85.167 725.199,85.167 C725.121,85.167 725.03,85.245 724.874,85.544 C724.575,86.142 724.224,86.389 723.821,86.506 C723.522,86.597 722.794,86.61 722.586,86.61 C722.092,86.61 721.65,86.558 721.429,86.519 C721.338,86.493 721.234,86.376 721.169,86.22 C721.104,86.012 721.065,85.518 721.065,85.154 C721.065,84.621 721.052,83.451 721.104,83.152 C721.104,83.126 721.169,83.035 721.221,83.035 C721.585,83.035 722.105,83.035 722.521,83.061 C723.249,83.1 723.327,83.152 723.509,83.75 C723.548,83.88 723.639,84.023 723.73,84.023 C723.834,84.023 723.886,83.893 723.886,83.659 C723.873,83.373 723.847,83.191 723.847,82.84 C723.847,82.528 723.86,82.268 723.886,81.917 C723.899,81.8 723.873,81.605 723.769,81.605 C723.691,81.605 723.6,81.696 723.522,81.891 C723.288,82.489 723.262,82.528 722.092,82.528 L721.221,82.528 C721.143,82.528 721.117,82.463 721.104,82.411 C721.091,82.112 721.13,79.785 721.156,79.473 C721.169,79.161 721.312,79.096 721.338,79.096 C722.001,79.083 722.872,79.109 723.184,79.161 C723.574,79.226 723.873,79.369 724.042,80.058 C724.068,80.201 724.146,80.383 724.25,80.383 C724.367,80.383 724.458,80.214 724.458,80.032 C724.458,79.772 724.432,79.291 724.432,78.771 C724.419,78.706 724.354,78.602 724.315,78.615 C724.107,78.654 723.548,78.667 723.119,78.667 L721.195,78.667 Z M736.0175,78.446 C734.8475,78.446 733.6125,78.719 732.5075,79.629 C731.9485,80.084 731.0645,81.254 731.0645,82.749 C731.0645,84.218 731.6625,85.154 732.1565,85.726 C732.6765,86.337 734.0285,87.234 735.8745,87.234 C737.0055,87.234 738.0195,86.948 738.2275,86.87 C738.3705,86.792 738.5915,86.636 738.6435,86.519 C738.8125,86.22 739.0855,85.57 739.1375,85.232 C739.1635,85.089 739.1635,84.803 739.0205,84.803 C738.9555,84.803 738.8905,84.868 738.7345,85.154 C738.4225,85.7 738.0845,86.103 737.5385,86.402 C737.0185,86.701 736.3815,86.727 736.1605,86.727 C735.1075,86.727 733.6775,86.155 732.9365,84.686 C732.6505,84.114 732.4945,83.399 732.4945,82.528 C732.4945,80.565 733.7555,78.849 735.8355,78.849 C736.5375,78.849 737.2135,79.018 737.8895,79.551 C738.0715,79.681 738.3055,80.071 738.4355,80.5 C738.4875,80.708 738.5785,80.851 738.6435,80.851 C738.7605,80.851 738.8515,80.682 738.8385,80.409 C738.8125,80.11 738.7605,79.564 738.7605,79.265 C738.7605,78.992 738.6305,78.888 738.5655,78.875 C738.3445,78.849 737.9155,78.693 737.5905,78.641 C737.0965,78.537 736.4985,78.446 736.0175,78.446 Z M749.085,78.667 C747.59,78.667 746.407,78.628 746.082,78.589 C745.874,78.576 745.653,78.394 745.614,78.355 C745.497,78.238 745.471,78.147 745.406,78.147 C745.315,78.147 745.211,78.29 745.211,78.368 C745.211,79.109 744.951,79.863 744.951,80.11 C744.951,80.24 745.016,80.396 745.107,80.396 C745.159,80.396 745.237,80.383 745.367,80.11 C745.575,79.72 745.718,79.499 745.783,79.434 C745.978,79.226 746.264,79.135 746.706,79.135 C746.927,79.135 748.032,79.161 748.279,79.2 C748.318,79.2 748.396,79.278 748.396,79.369 L748.396,80.916 C748.396,81.917 748.331,84.543 748.305,85.323 C748.266,86.285 748.227,86.493 747.343,86.701 C747.213,86.74 747.083,86.831 747.083,86.935 C747.083,87.013 747.213,87.091 747.473,87.091 C747.655,87.091 748.383,87 748.994,87 C749.514,87 750.45,87.065 750.554,87.065 C750.684,87.065 750.918,87.039 750.918,86.896 C750.918,86.818 750.749,86.701 750.58,86.662 C749.748,86.493 749.683,86.298 749.631,85.752 C749.579,85.232 749.566,83.971 749.566,82.463 C749.566,81.345 749.579,79.993 749.579,79.382 C749.579,79.343 749.631,79.226 749.683,79.213 C749.878,79.174 751.23,79.174 751.464,79.187 C752.231,79.226 752.4,79.291 752.491,79.98 C752.53,80.305 752.595,80.396 752.686,80.396 C752.79,80.396 752.894,80.253 752.907,80.136 C752.985,79.486 753.063,79.031 753.193,78.628 C753.258,78.446 753.193,78.329 753.128,78.329 C753.076,78.329 753.024,78.368 752.933,78.42 C752.751,78.537 752.53,78.615 752.023,78.641 C751.516,78.654 749.774,78.667 749.085,78.667 Z M761.7625,78.446 C760.8395,78.446 760.2285,78.706 759.8125,79.07 C759.3835,79.447 759.0845,80.045 759.0845,80.682 C759.0845,81.8 759.8515,82.554 761.0085,83.295 C762.3345,84.14 762.5945,84.712 762.5945,85.271 C762.5945,86.181 761.8925,86.779 761.0735,86.779 C760.5405,86.779 759.7085,86.428 759.3575,85.7 C759.1755,85.297 758.9675,84.972 758.8635,84.972 C758.8115,84.972 758.6815,85.154 758.6815,85.219 C758.6815,85.453 758.7985,86.038 758.8765,86.48 C758.8765,86.519 759.0585,86.818 759.1885,86.883 C759.6175,87.091 760.4365,87.221 760.9305,87.221 C761.5285,87.221 762.2825,87.026 762.6985,86.753 C763.4135,86.298 763.7905,85.557 763.7905,84.907 C763.7905,83.815 763.1015,83.1 761.9705,82.372 C760.8135,81.605 760.1765,81.202 760.1765,80.318 C760.1765,79.447 760.8135,78.823 761.6325,78.823 C762.0095,78.823 762.3345,78.94 762.5815,79.135 C762.7115,79.226 763.0495,79.616 763.2055,80.071 C763.2575,80.253 763.4265,80.344 763.5305,80.344 C763.6215,80.344 763.6345,80.227 763.6345,80.006 C763.6345,79.954 763.5175,79.148 763.5045,78.927 C763.4915,78.888 763.4135,78.693 763.3355,78.667 C763.0755,78.628 762.3995,78.446 761.7625,78.446 Z"></path>
        </g>
    </g>
</svg>