<?xml version="1.0" encoding="UTF-8"?>
<svg width="184px" height="20px" viewBox="0 0 184 20" version="1.1" xmlns="http://www.w3.org/2000/svg" xmlns:xlink="http://www.w3.org/1999/xlink">
    <!-- Generator: Sketch 46.2 (44496) - http://www.bohemiancoding.com/sketch -->
    <title>MR_ArchitectsLtd_x2.75 (1)</title>
    <desc>Created with Sketch.</desc>
    <defs></defs>
    <g id="Page-1" stroke="none" stroke-width="1" fill="none" fill-rule="evenodd">
        <g id="MR_ArchitectsLtd_x2.75-(1)" fill="#222222">
            <path d="M0,3.585 L0,2.929 C0.718,2.957 1.405,2.97 2.061,2.97 C2.724,2.97 3.36,2.957 3.968,2.929 C4.57,4.296 5.12,5.496 5.619,6.528 L9.505,14.526 L13.012,7.195 C13.969,5.199 14.608,3.777 14.93,2.929 C15.654,2.957 16.266,2.97 16.765,2.97 C17.223,2.97 17.965,2.957 18.99,2.929 L18.99,3.585 C18.177,3.599 17.683,3.635 17.509,3.693 C17.334,3.751 17.213,3.832 17.145,3.934 C17.056,4.071 17.004,4.402 16.991,4.929 C16.984,5.065 16.967,6.036 16.939,7.841 L16.939,12.588 C16.939,13.519 16.953,14.424 16.98,15.306 C17.001,15.955 17.05,16.342 17.129,16.465 C17.207,16.588 17.334,16.678 17.509,16.736 C17.683,16.794 18.177,16.83 18.99,16.844 L18.99,17.5 C17.609,17.438 16.635,17.408 16.068,17.408 C15.61,17.408 14.598,17.438 13.033,17.5 L13.033,16.844 C13.846,16.83 14.342,16.794 14.52,16.736 C14.697,16.678 14.817,16.598 14.878,16.495 C14.967,16.358 15.019,16.027 15.032,15.5 C15.039,15.358 15.056,14.387 15.083,12.588 L15.083,5.062 L11.546,12.465 C10.992,13.621 10.558,14.551 10.244,15.254 C10.018,15.768 9.676,16.581 9.218,17.695 L8.818,17.695 C8.729,17.436 8.647,17.227 8.572,17.069 L7.875,15.582 L2.974,5.4 L2.974,12.588 C2.974,13.519 2.987,14.424 3.015,15.306 C3.035,15.955 3.084,16.342 3.163,16.465 C3.242,16.588 3.368,16.678 3.543,16.736 C3.717,16.794 4.211,16.83 5.024,16.844 L5.024,17.5 L2.553,17.418 L0,17.5 L0,16.844 C0.807,16.83 1.299,16.794 1.477,16.736 C1.654,16.678 1.777,16.598 1.846,16.495 C1.928,16.358 1.979,16.027 2,15.5 C2.006,15.358 2.02,14.387 2.041,12.588 L2.041,7.841 C2.041,6.911 2.03,6.002 2.01,5.113 C1.989,4.464 1.939,4.08 1.861,3.96 C1.782,3.84 1.656,3.751 1.481,3.693 C1.308,3.635 0.813,3.599 0,3.585" id="Fill-1"></path>
            <polygon id="Fill-4" points="23.183 20 23.941 20 23.941 0.264 23.183 0.264"></polygon>
            <path d="M28.114,3.585 L28.114,2.929 C28.38,2.936 28.787,2.946 29.334,2.96 L31.303,3.011 C31.692,3.011 32.297,2.998 33.118,2.97 C34.184,2.929 34.803,2.909 34.974,2.909 C36.279,2.909 37.231,3.025 37.829,3.257 C38.427,3.49 38.891,3.867 39.219,4.391 C39.547,4.913 39.711,5.482 39.711,6.098 C39.711,6.672 39.557,7.243 39.25,7.81 C38.942,8.377 38.496,8.849 37.911,9.225 C37.327,9.601 36.566,9.892 35.63,10.097 C35.801,10.336 36.204,10.869 36.84,11.696 L39.424,15.101 C40.162,16.051 40.593,16.581 40.716,16.69 C40.777,16.738 40.839,16.771 40.9,16.793 C41.003,16.827 41.229,16.844 41.577,16.844 L41.577,17.5 C41.058,17.459 40.603,17.438 40.213,17.438 C39.81,17.438 39.314,17.459 38.727,17.5 C38.282,16.987 37.537,15.986 36.491,14.496 C35.91,13.669 35.397,12.979 34.953,12.424 C34.235,11.508 33.552,10.678 32.902,9.933 L33.005,9.625 C33.36,9.646 33.63,9.656 33.815,9.656 C35.059,9.656 36.002,9.362 36.645,8.774 C37.288,8.186 37.609,7.41 37.609,6.446 C37.609,5.606 37.332,4.938 36.778,4.441 C36.225,3.946 35.387,3.698 34.266,3.698 C33.562,3.698 32.872,3.804 32.195,4.016 C32.167,4.385 32.147,4.731 32.133,5.052 C32.126,5.148 32.103,6.142 32.062,8.036 L32.062,12.588 C32.062,13.519 32.075,14.424 32.103,15.306 C32.116,15.955 32.162,16.342 32.241,16.465 C32.319,16.588 32.448,16.678 32.625,16.736 C32.803,16.794 33.295,16.83 34.102,16.844 L34.102,17.5 C33.131,17.445 32.239,17.418 31.426,17.418 C30.77,17.418 29.666,17.445 28.114,17.5 L28.114,16.844 C28.92,16.83 29.413,16.794 29.59,16.736 C29.768,16.678 29.891,16.598 29.959,16.495 C30.042,16.358 30.093,16.027 30.113,15.5 C30.12,15.358 30.134,14.387 30.154,12.588 L30.154,7.841 C30.154,6.911 30.144,6.002 30.124,5.113 C30.103,4.464 30.053,4.08 29.975,3.96 C29.896,3.84 29.77,3.751 29.596,3.693 C29.421,3.635 28.927,3.599 28.114,3.585" id="Fill-5"></path>
            <path d="M52.874,8.263 L52.874,7.951 C53.15,7.932 53.313,7.913 53.365,7.893 C53.394,7.883 53.417,7.866 53.435,7.842 C53.456,7.81 53.471,7.764 53.479,7.702 C53.495,7.564 53.51,7.259 53.522,6.791 C53.529,6.564 53.533,6.173 53.533,5.619 C53.533,5.123 53.529,4.684 53.522,4.302 C53.515,3.92 53.499,3.692 53.475,3.619 C53.465,3.585 53.45,3.559 53.429,3.541 C53.408,3.522 53.368,3.508 53.31,3.498 C53.148,3.472 53.003,3.456 52.874,3.451 L52.874,3.14 C53.377,3.154 53.724,3.161 53.914,3.161 C54.166,3.161 54.418,3.154 54.672,3.14 L54.994,3.864 L55.251,4.414 L56.415,6.816 C56.664,6.335 56.851,5.962 56.976,5.695 L57.459,4.681 C57.728,4.115 57.892,3.766 57.952,3.636 C58.011,3.505 58.079,3.34 58.155,3.14 C58.475,3.157 58.68,3.165 58.77,3.165 L59.861,3.14 L59.861,3.451 L59.81,3.451 C59.563,3.448 59.407,3.477 59.341,3.537 C59.275,3.597 59.242,3.712 59.242,3.883 C59.242,4.085 59.241,4.239 59.239,4.344 L59.221,5.373 L59.221,6.659 C59.221,6.971 59.222,7.154 59.224,7.208 C59.244,7.518 59.261,7.709 59.275,7.779 C59.283,7.814 59.296,7.841 59.315,7.862 C59.335,7.882 59.363,7.898 59.4,7.909 C59.437,7.92 59.59,7.935 59.861,7.951 L59.861,8.263 L58.693,8.241 L57.551,8.263 L57.551,7.951 C57.853,7.942 58.026,7.924 58.069,7.898 C58.111,7.873 58.142,7.815 58.16,7.725 C58.179,7.634 58.187,7.332 58.187,6.816 L58.187,4.15 L57.338,5.868 L56.932,6.721 C56.824,6.946 56.673,7.272 56.478,7.699 C56.358,7.958 56.264,8.167 56.195,8.325 L55.946,8.325 C55.858,8.12 55.731,7.839 55.565,7.482 C55.282,6.873 55.067,6.417 54.921,6.117 L53.958,4.15 L53.958,5.948 C53.958,6.249 53.962,6.606 53.971,7.02 C53.979,7.433 53.988,7.668 53.998,7.723 C54.008,7.777 54.023,7.817 54.044,7.842 C54.065,7.866 54.102,7.887 54.154,7.904 C54.207,7.921 54.356,7.937 54.603,7.951 L54.603,8.263 C54.329,8.248 54.05,8.241 53.764,8.241 C53.391,8.241 53.094,8.248 52.874,8.263" id="Fill-6"></path>
            <path d="M67.291,3.14 L67.291,3.462 C67.044,3.469 66.898,3.478 66.852,3.489 C66.805,3.5 66.772,3.514 66.753,3.529 C66.733,3.545 66.72,3.565 66.712,3.59 C66.695,3.631 66.683,3.711 66.676,3.828 C66.671,3.892 66.667,4.011 66.665,4.187 C66.655,4.787 66.65,5.111 66.65,5.157 L66.65,6.633 L66.661,7.303 C66.661,7.555 66.673,7.718 66.698,7.794 C66.708,7.828 66.724,7.855 66.747,7.873 C66.771,7.891 66.807,7.906 66.857,7.917 C66.907,7.928 67.052,7.936 67.291,7.94 L67.291,8.263 C66.893,8.248 66.468,8.241 66.017,8.241 C65.623,8.241 65.273,8.248 64.966,8.263 L64.966,7.94 C65.219,7.931 65.366,7.922 65.405,7.915 C65.456,7.905 65.491,7.892 65.509,7.875 C65.528,7.857 65.539,7.838 65.544,7.816 C65.552,7.787 65.561,7.672 65.573,7.472 C65.593,7.179 65.603,6.908 65.603,6.659 L65.603,5.128 C65.603,4.642 65.6,4.33 65.596,4.19 C65.583,3.88 65.568,3.687 65.552,3.608 C65.544,3.577 65.533,3.552 65.517,3.535 C65.501,3.518 65.472,3.504 65.429,3.493 C65.386,3.482 65.231,3.472 64.966,3.462 L64.966,3.14 C65.273,3.154 65.626,3.161 66.024,3.161 C66.471,3.161 66.893,3.154 67.291,3.14" id="Fill-7"></path>
            <path d="M72.523,8.263 L72.523,8.076 C72.586,8.049 72.676,8.001 72.79,7.933 C72.842,7.904 72.875,7.879 72.89,7.86 C72.899,7.848 72.905,7.834 72.908,7.819 C72.92,7.759 72.931,7.541 72.94,7.166 C72.95,6.791 72.955,6.341 72.955,5.816 C72.955,5.045 72.953,4.569 72.948,4.388 C72.938,3.929 72.922,3.667 72.9,3.601 C72.891,3.571 72.872,3.55 72.846,3.535 C72.789,3.498 72.603,3.474 72.285,3.462 L72.285,3.14 C72.595,3.154 72.949,3.161 73.347,3.161 C73.792,3.161 74.212,3.154 74.61,3.14 L74.61,3.462 C74.335,3.474 74.166,3.496 74.105,3.527 C74.078,3.542 74.059,3.566 74.047,3.599 C74.034,3.632 74.023,3.783 74.012,4.051 C74.001,4.32 73.995,4.659 73.995,5.069 C73.995,5.113 73.997,5.466 73.999,6.128 C74.001,6.477 74.003,6.823 74.004,7.166 C74.006,7.509 74.007,7.717 74.01,7.79 C74.347,7.805 74.576,7.813 74.698,7.813 C75.069,7.813 75.393,7.79 75.669,7.746 C75.769,7.731 75.829,7.716 75.849,7.699 C75.868,7.682 75.889,7.637 75.911,7.564 C75.96,7.378 76.007,7.166 76.054,6.926 L76.357,6.926 C76.35,6.995 76.347,7.035 76.347,7.047 L76.255,7.787 C76.235,8.019 76.224,8.158 76.222,8.204 C76.151,8.224 76.08,8.237 76.01,8.244 C75.86,8.257 75.63,8.263 75.317,8.263 C75.273,8.263 74.986,8.257 74.457,8.244 C74.054,8.235 73.773,8.23 73.614,8.23 C73.375,8.23 73.011,8.241 72.523,8.263" id="Fill-8"></path>
            <path d="M81.47,8.263 L81.47,8.076 C81.533,8.049 81.622,8.001 81.737,7.933 C81.788,7.904 81.821,7.879 81.836,7.86 C81.845,7.848 81.852,7.834 81.854,7.819 C81.866,7.759 81.877,7.541 81.887,7.166 C81.896,6.791 81.901,6.341 81.901,5.816 C81.901,5.045 81.899,4.569 81.895,4.388 C81.884,3.929 81.869,3.667 81.847,3.601 C81.837,3.571 81.818,3.55 81.792,3.535 C81.735,3.498 81.549,3.474 81.231,3.462 L81.231,3.14 C81.541,3.154 81.896,3.161 82.294,3.161 C82.738,3.161 83.159,3.154 83.557,3.14 L83.557,3.462 C83.281,3.474 83.112,3.496 83.052,3.527 C83.024,3.542 83.005,3.566 82.993,3.599 C82.98,3.632 82.969,3.783 82.958,4.051 C82.947,4.32 82.941,4.659 82.941,5.069 C82.941,5.113 82.943,5.466 82.945,6.128 C82.948,6.477 82.95,6.823 82.951,7.166 C82.952,7.509 82.954,7.717 82.956,7.79 C83.293,7.805 83.522,7.813 83.645,7.813 C84.016,7.813 84.339,7.79 84.615,7.746 C84.715,7.731 84.775,7.716 84.795,7.699 C84.814,7.682 84.835,7.637 84.857,7.564 C84.906,7.378 84.953,7.166 85,6.926 L85.304,6.926 C85.296,6.995 85.293,7.035 85.293,7.047 L85.201,7.787 C85.182,8.019 85.17,8.158 85.168,8.204 C85.097,8.224 85.026,8.237 84.956,8.244 C84.807,8.257 84.576,8.263 84.264,8.263 C84.22,8.263 83.933,8.257 83.403,8.244 C83,8.235 82.719,8.23 82.561,8.23 C82.321,8.23 81.957,8.241 81.47,8.263" id="Fill-9"></path>
            <path d="M90.364,8.263 L90.364,8.065 C90.511,7.997 90.63,7.926 90.724,7.853 C90.738,7.75 90.75,7.584 90.76,7.355 C90.779,6.935 90.789,6.629 90.789,6.439 L90.789,4.791 C90.789,4.728 90.786,4.49 90.778,4.077 C90.771,3.801 90.754,3.633 90.727,3.571 C90.715,3.547 90.696,3.529 90.672,3.517 C90.606,3.487 90.431,3.465 90.145,3.451 L90.145,3.14 L90.994,3.158 C91.163,3.16 91.324,3.161 91.478,3.161 C91.812,3.161 92.185,3.158 92.595,3.15 L93.338,3.132 C93.426,3.132 93.604,3.137 93.873,3.147 C93.897,3.147 93.938,3.154 93.994,3.169 L94.02,3.216 L93.949,3.744 C93.947,3.78 93.936,3.956 93.913,4.271 L93.628,4.271 C93.622,3.983 93.611,3.806 93.595,3.74 C93.585,3.706 93.569,3.682 93.551,3.667 C93.519,3.645 93.421,3.626 93.258,3.608 C93.016,3.582 92.779,3.568 92.547,3.568 C92.33,3.568 92.107,3.577 91.881,3.594 C91.846,3.87 91.829,4.22 91.829,4.645 L91.829,5.396 C91.995,5.408 92.169,5.414 92.35,5.414 C92.405,5.414 92.608,5.409 92.957,5.399 C93.089,5.397 93.167,5.388 93.19,5.373 C93.213,5.358 93.23,5.333 93.243,5.296 C93.272,5.204 93.289,5.049 93.294,4.831 L93.591,4.831 L93.576,5.637 L93.591,6.439 L93.276,6.439 C93.278,6.156 93.26,5.981 93.221,5.915 C93.191,5.867 93.14,5.836 93.063,5.824 C92.895,5.797 92.679,5.783 92.415,5.783 C92.178,5.783 91.983,5.791 91.829,5.806 L91.829,7.358 C91.829,7.532 91.833,7.681 91.84,7.805 C92.038,7.819 92.272,7.827 92.544,7.827 C92.807,7.827 93.051,7.818 93.274,7.801 C93.497,7.784 93.635,7.76 93.687,7.728 C93.703,7.718 93.719,7.696 93.733,7.662 C93.777,7.545 93.823,7.323 93.873,6.996 L94.173,6.996 C94.119,7.479 94.093,7.877 94.093,8.189 L94.045,8.237 C93.889,8.254 93.667,8.263 93.378,8.263 L92.789,8.252 C92.207,8.244 91.808,8.241 91.588,8.241 C91.529,8.241 91.121,8.248 90.364,8.263" id="Fill-10"></path>
            <path d="M99.296,3.443 L99.296,3.143 C99.352,3.143 99.547,3.148 99.882,3.158 C100.045,3.163 100.276,3.165 100.577,3.165 C100.833,3.165 101.054,3.16 101.236,3.15 C101.539,3.138 101.789,3.132 101.987,3.132 C102.37,3.132 102.657,3.16 102.848,3.214 C103.038,3.27 103.2,3.384 103.335,3.557 C103.469,3.731 103.536,3.941 103.536,4.19 C103.536,4.486 103.444,4.754 103.262,4.996 C103.078,5.238 102.796,5.43 102.415,5.571 C102.477,5.681 102.546,5.794 102.624,5.908 C102.702,6.023 102.748,6.092 102.762,6.117 C102.775,6.141 102.789,6.164 102.804,6.187 L103.371,7.04 C103.522,7.267 103.604,7.389 103.616,7.406 C103.8,7.65 103.912,7.794 103.954,7.838 C103.995,7.882 104.035,7.913 104.074,7.93 C104.113,7.947 104.19,7.957 104.306,7.959 L104.306,8.263 C103.929,8.253 103.657,8.248 103.488,8.248 C103.293,8.248 103.099,8.253 102.906,8.263 C102.894,8.209 102.864,8.14 102.818,8.054 L102.034,6.761 C101.81,6.39 101.619,6.099 101.464,5.886 C101.385,5.779 101.31,5.698 101.236,5.645 L101.276,5.523 C101.569,5.533 101.79,5.503 101.939,5.434 C102.088,5.364 102.214,5.24 102.316,5.06 C102.419,4.881 102.471,4.68 102.471,4.458 C102.471,4.233 102.417,4.046 102.31,3.897 C102.202,3.749 102.068,3.645 101.91,3.586 C101.808,3.55 101.624,3.531 101.36,3.531 C101.243,3.531 101.128,3.541 101.013,3.561 C101.006,3.648 100.998,3.846 100.991,4.154 C100.977,4.845 100.969,5.306 100.969,5.538 C100.969,5.904 100.973,6.293 100.979,6.703 C100.989,7.206 100.997,7.491 101.002,7.56 C101.009,7.696 101.022,7.786 101.042,7.827 C101.052,7.847 101.067,7.864 101.09,7.88 C101.112,7.896 101.147,7.909 101.196,7.918 C101.245,7.928 101.387,7.936 101.621,7.94 L101.621,8.263 C101.203,8.248 100.781,8.241 100.354,8.241 C99.973,8.241 99.62,8.248 99.296,8.263 L99.296,7.94 C99.573,7.931 99.738,7.918 99.79,7.9 C99.819,7.893 99.841,7.881 99.854,7.863 C99.867,7.847 99.878,7.813 99.885,7.761 C99.902,7.666 99.914,7.522 99.922,7.329 L99.951,6.26 L99.951,4.901 L99.937,4.128 C99.932,3.823 99.917,3.64 99.893,3.579 C99.88,3.552 99.861,3.531 99.837,3.517 C99.778,3.487 99.598,3.463 99.296,3.443" id="Fill-11"></path>
            <polygon id="Fill-12" points="111.282 9.388 111.857 9.388 111.857 2.078 111.282 2.078"></polygon>
            <path d="M119.021,3.443 L119.021,3.143 C119.077,3.143 119.272,3.148 119.607,3.158 C119.771,3.163 120.002,3.165 120.303,3.165 C120.559,3.165 120.779,3.16 120.962,3.15 C121.265,3.138 121.515,3.132 121.713,3.132 C122.096,3.132 122.383,3.16 122.573,3.214 C122.764,3.27 122.926,3.384 123.061,3.557 C123.194,3.731 123.262,3.941 123.262,4.19 C123.262,4.486 123.17,4.754 122.987,4.996 C122.804,5.238 122.521,5.43 122.141,5.571 C122.202,5.681 122.271,5.794 122.35,5.908 C122.428,6.023 122.474,6.092 122.487,6.117 C122.501,6.141 122.515,6.164 122.529,6.187 L123.097,7.04 C123.248,7.267 123.33,7.389 123.342,7.406 C123.525,7.65 123.638,7.794 123.68,7.838 C123.721,7.882 123.761,7.913 123.8,7.93 C123.839,7.947 123.916,7.957 124.031,7.959 L124.031,8.263 C123.654,8.253 123.383,8.248 123.214,8.248 C123.019,8.248 122.824,8.253 122.632,8.263 C122.619,8.209 122.59,8.14 122.544,8.054 L121.76,6.761 C121.535,6.39 121.345,6.099 121.189,5.886 C121.11,5.779 121.035,5.698 120.962,5.645 L121.002,5.523 C121.295,5.533 121.516,5.503 121.665,5.434 C121.813,5.364 121.939,5.24 122.042,5.06 C122.145,4.881 122.196,4.68 122.196,4.458 C122.196,4.233 122.143,4.046 122.035,3.897 C121.928,3.749 121.794,3.645 121.636,3.586 C121.533,3.55 121.35,3.531 121.086,3.531 C120.969,3.531 120.854,3.541 120.738,3.561 C120.731,3.648 120.724,3.846 120.717,4.154 C120.702,4.845 120.694,5.306 120.694,5.538 C120.694,5.904 120.698,6.293 120.705,6.703 C120.715,7.206 120.723,7.491 120.728,7.56 C120.734,7.696 120.748,7.786 120.768,7.827 C120.777,7.847 120.793,7.864 120.815,7.88 C120.838,7.896 120.873,7.909 120.922,7.918 C120.971,7.928 121.112,7.936 121.347,7.94 L121.347,8.263 C120.929,8.248 120.507,8.241 120.079,8.241 C119.698,8.241 119.346,8.248 119.021,8.263 L119.021,7.94 C119.299,7.931 119.464,7.918 119.516,7.9 C119.545,7.893 119.566,7.881 119.579,7.863 C119.593,7.847 119.604,7.813 119.61,7.761 C119.628,7.666 119.64,7.522 119.647,7.329 L119.677,6.26 L119.677,4.901 L119.662,4.128 C119.657,3.823 119.643,3.64 119.618,3.579 C119.605,3.552 119.587,3.531 119.563,3.517 C119.504,3.487 119.323,3.463 119.021,3.443" id="Fill-13"></path>
            <path d="M130.153,5.545 C130.153,6.114 130.231,6.585 130.388,6.957 C130.544,7.33 130.744,7.593 130.988,7.746 C131.232,7.9 131.521,7.977 131.853,7.977 C132.16,7.977 132.436,7.904 132.679,7.757 C132.921,7.611 133.111,7.363 133.25,7.014 C133.388,6.665 133.456,6.241 133.456,5.743 C133.456,5.401 133.419,5.089 133.345,4.806 C133.271,4.522 133.163,4.281 133.024,4.083 C132.886,3.883 132.721,3.731 132.532,3.626 C132.343,3.522 132.092,3.469 131.779,3.469 C131.423,3.469 131.119,3.553 130.869,3.72 C130.619,3.887 130.438,4.134 130.323,4.461 C130.21,4.789 130.153,5.15 130.153,5.545 Z M129.025,5.762 C129.025,5.314 129.093,4.925 129.229,4.593 C129.364,4.261 129.558,3.98 129.81,3.747 C130.061,3.516 130.334,3.348 130.63,3.246 C131.008,3.116 131.421,3.052 131.867,3.052 C132.312,3.052 132.714,3.114 133.075,3.238 C133.344,3.334 133.582,3.471 133.788,3.65 C133.994,3.83 134.151,4.014 134.259,4.201 C134.366,4.39 134.447,4.596 134.502,4.82 C134.557,5.045 134.585,5.293 134.585,5.564 C134.585,6.023 134.505,6.449 134.347,6.842 C134.229,7.135 134.058,7.395 133.832,7.622 C133.606,7.849 133.349,8.023 133.062,8.146 C132.665,8.309 132.214,8.391 131.706,8.391 C131.157,8.391 130.685,8.292 130.291,8.092 C129.896,7.894 129.587,7.6 129.362,7.212 C129.138,6.823 129.025,6.34 129.025,5.762 L129.025,5.762 Z" id="Fill-14"></path>
            <path d="M140.893,5.545 C140.893,6.114 140.971,6.585 141.127,6.957 C141.283,7.33 141.483,7.593 141.728,7.746 C141.972,7.9 142.26,7.977 142.592,7.977 C142.899,7.977 143.175,7.904 143.418,7.757 C143.66,7.611 143.851,7.363 143.989,7.014 C144.127,6.665 144.195,6.241 144.195,5.743 C144.195,5.401 144.158,5.089 144.084,4.806 C144.01,4.522 143.902,4.281 143.764,4.083 C143.625,3.883 143.46,3.731 143.271,3.626 C143.082,3.522 142.831,3.469 142.519,3.469 C142.162,3.469 141.858,3.553 141.608,3.72 C141.358,3.887 141.177,4.134 141.063,4.461 C140.949,4.789 140.893,5.15 140.893,5.545 Z M139.765,5.762 C139.765,5.314 139.832,4.925 139.968,4.593 C140.104,4.261 140.297,3.98 140.549,3.747 C140.8,3.516 141.073,3.348 141.369,3.246 C141.747,3.116 142.16,3.052 142.606,3.052 C143.051,3.052 143.453,3.114 143.814,3.238 C144.083,3.334 144.321,3.471 144.527,3.65 C144.733,3.83 144.891,4.014 144.998,4.201 C145.105,4.39 145.187,4.596 145.241,4.82 C145.296,5.045 145.324,5.293 145.324,5.564 C145.324,6.023 145.244,6.449 145.086,6.842 C144.969,7.135 144.797,7.395 144.571,7.622 C144.346,7.849 144.088,8.023 143.801,8.146 C143.404,8.309 142.953,8.391 142.445,8.391 C141.896,8.391 141.424,8.292 141.03,8.092 C140.636,7.894 140.326,7.6 140.102,7.212 C139.877,6.823 139.765,6.34 139.765,5.762 L139.765,5.762 Z" id="Fill-15"></path>
            <path d="M152.054,7.816 C152.281,7.85 152.498,7.867 152.706,7.867 C153.03,7.867 153.318,7.833 153.57,7.765 C153.756,7.713 153.918,7.639 154.057,7.541 C154.196,7.444 154.33,7.3 154.458,7.109 C154.586,6.919 154.686,6.691 154.757,6.428 C154.827,6.164 154.863,5.88 154.863,5.575 C154.863,5.296 154.827,5.027 154.757,4.767 C154.686,4.507 154.57,4.28 154.408,4.084 C154.248,3.889 154.044,3.747 153.797,3.659 C153.551,3.571 153.177,3.527 152.677,3.527 C152.488,3.527 152.281,3.544 152.054,3.575 C152.029,3.922 152.018,4.575 152.018,5.534 L152.018,6.377 C152.018,7.105 152.029,7.584 152.054,7.816 Z M150.589,8.263 L150.589,8.087 C150.608,8.075 150.643,8.055 150.691,8.028 C150.784,7.977 150.87,7.923 150.948,7.867 C150.975,7.54 150.988,7.009 150.988,6.274 L150.988,5.674 C150.988,5.352 150.982,4.879 150.97,4.256 C150.963,3.912 150.946,3.692 150.922,3.597 C150.915,3.575 150.905,3.558 150.893,3.546 C150.873,3.526 150.843,3.512 150.802,3.502 C150.76,3.492 150.606,3.47 150.34,3.436 L150.34,3.14 L151.67,3.161 C151.825,3.161 152.12,3.155 152.552,3.143 C152.864,3.136 153.114,3.132 153.303,3.132 C153.734,3.132 154.081,3.158 154.341,3.211 C154.601,3.263 154.827,3.348 155.021,3.463 C155.213,3.58 155.376,3.717 155.509,3.876 C155.643,4.034 155.743,4.205 155.812,4.388 C155.926,4.696 155.983,5.033 155.983,5.399 C155.983,5.865 155.897,6.281 155.727,6.648 C155.556,7.014 155.321,7.32 155.022,7.567 C154.723,7.814 154.398,7.991 154.05,8.1 C153.7,8.209 153.279,8.263 152.786,8.263 L151.699,8.241 L150.589,8.263 L150.589,8.263 Z" id="Fill-16"></path>
            <path d="M161.3,8.263 L161.3,8.065 C161.446,7.997 161.566,7.926 161.659,7.853 C161.674,7.75 161.686,7.584 161.695,7.355 C161.715,6.935 161.725,6.629 161.725,6.439 L161.725,4.791 C161.725,4.728 161.721,4.49 161.714,4.077 C161.707,3.801 161.689,3.633 161.662,3.571 C161.65,3.547 161.632,3.529 161.607,3.517 C161.542,3.487 161.366,3.465 161.08,3.451 L161.08,3.14 L161.93,3.158 C162.099,3.16 162.26,3.161 162.413,3.161 C162.748,3.161 163.12,3.158 163.53,3.15 L164.273,3.132 C164.361,3.132 164.54,3.137 164.809,3.147 C164.833,3.147 164.873,3.154 164.93,3.169 L164.955,3.216 L164.885,3.744 C164.883,3.78 164.871,3.956 164.849,4.271 L164.563,4.271 C164.558,3.983 164.547,3.806 164.53,3.74 C164.521,3.706 164.506,3.682 164.486,3.667 C164.454,3.645 164.356,3.626 164.193,3.608 C163.951,3.582 163.715,3.568 163.482,3.568 C163.266,3.568 163.043,3.577 162.816,3.594 C162.782,3.87 162.765,4.22 162.765,4.645 L162.765,5.396 C162.931,5.408 163.104,5.414 163.285,5.414 C163.341,5.414 163.544,5.409 163.893,5.399 C164.024,5.397 164.103,5.388 164.125,5.373 C164.148,5.358 164.166,5.333 164.179,5.296 C164.208,5.204 164.225,5.049 164.229,4.831 L164.526,4.831 L164.512,5.637 L164.526,6.439 L164.211,6.439 C164.214,6.156 164.195,5.981 164.156,5.915 C164.127,5.867 164.074,5.836 163.999,5.824 C163.83,5.797 163.614,5.783 163.351,5.783 C163.114,5.783 162.919,5.791 162.765,5.806 L162.765,7.358 C162.765,7.532 162.769,7.681 162.775,7.805 C162.974,7.819 163.208,7.827 163.479,7.827 C163.742,7.827 163.986,7.818 164.21,7.801 C164.433,7.784 164.57,7.76 164.621,7.728 C164.639,7.718 164.654,7.696 164.669,7.662 C164.713,7.545 164.76,7.323 164.809,6.996 L165.108,6.996 C165.055,7.479 165.028,7.877 165.028,8.189 L164.98,8.237 C164.824,8.254 164.602,8.263 164.314,8.263 L163.725,8.252 C163.144,8.244 162.743,8.241 162.523,8.241 C162.465,8.241 162.057,8.248 161.3,8.263" id="Fill-17"></path>
            <path d="M170.433,8.263 L170.433,8.076 C170.496,8.049 170.585,8.001 170.7,7.933 C170.751,7.904 170.784,7.879 170.799,7.86 C170.809,7.848 170.814,7.834 170.817,7.819 C170.829,7.759 170.84,7.541 170.85,7.166 C170.859,6.791 170.864,6.341 170.864,5.816 C170.864,5.045 170.862,4.569 170.857,4.388 C170.848,3.929 170.831,3.667 170.81,3.601 C170.8,3.571 170.781,3.55 170.755,3.535 C170.698,3.498 170.512,3.474 170.194,3.462 L170.194,3.14 C170.504,3.154 170.858,3.161 171.257,3.161 C171.7,3.161 172.122,3.154 172.52,3.14 L172.52,3.462 C172.244,3.474 172.075,3.496 172.015,3.527 C171.987,3.542 171.968,3.566 171.956,3.599 C171.943,3.632 171.932,3.783 171.921,4.051 C171.91,4.32 171.904,4.659 171.904,5.069 C171.904,5.113 171.905,5.466 171.908,6.128 C171.91,6.477 171.912,6.823 171.914,7.166 C171.915,7.509 171.917,7.717 171.919,7.79 C172.256,7.805 172.485,7.813 172.607,7.813 C172.979,7.813 173.302,7.79 173.578,7.746 C173.678,7.731 173.738,7.716 173.758,7.699 C173.777,7.682 173.798,7.637 173.819,7.564 C173.868,7.378 173.916,7.166 173.963,6.926 L174.267,6.926 C174.259,6.995 174.256,7.035 174.256,7.047 L174.164,7.787 C174.145,8.019 174.134,8.158 174.131,8.204 C174.061,8.224 173.989,8.237 173.919,8.244 C173.77,8.257 173.539,8.263 173.227,8.263 C173.183,8.263 172.896,8.257 172.366,8.244 C171.963,8.235 171.683,8.23 171.523,8.23 C171.284,8.23 170.921,8.241 170.433,8.263" id="Fill-18"></path>
            <path d="M179.379,8.263 L179.379,8.076 C179.442,8.049 179.531,8.001 179.646,7.933 C179.697,7.904 179.73,7.879 179.745,7.86 C179.755,7.848 179.761,7.834 179.764,7.819 C179.775,7.759 179.786,7.541 179.796,7.166 C179.806,6.791 179.811,6.341 179.811,5.816 C179.811,5.045 179.809,4.569 179.804,4.388 C179.794,3.929 179.777,3.667 179.756,3.601 C179.746,3.571 179.728,3.55 179.701,3.535 C179.645,3.498 179.458,3.474 179.141,3.462 L179.141,3.14 C179.45,3.154 179.805,3.161 180.203,3.161 C180.646,3.161 181.068,3.154 181.466,3.14 L181.466,3.462 C181.19,3.474 181.021,3.496 180.961,3.527 C180.934,3.542 180.914,3.566 180.902,3.599 C180.89,3.632 180.878,3.783 180.867,4.051 C180.856,4.32 180.851,4.659 180.851,5.069 C180.851,5.113 180.852,5.466 180.854,6.128 C180.856,6.477 180.858,6.823 180.86,7.166 C180.861,7.509 180.863,7.717 180.865,7.79 C181.202,7.805 181.432,7.813 181.554,7.813 C181.925,7.813 182.248,7.79 182.524,7.746 C182.624,7.731 182.685,7.716 182.704,7.699 C182.724,7.682 182.744,7.637 182.766,7.564 C182.814,7.378 182.862,7.166 182.909,6.926 L183.213,6.926 C183.205,6.995 183.202,7.035 183.202,7.047 L183.11,7.787 C183.091,8.019 183.08,8.158 183.077,8.204 C183.007,8.224 182.936,8.237 182.865,8.244 C182.716,8.257 182.485,8.263 182.173,8.263 C182.129,8.263 181.842,8.257 181.313,8.244 C180.909,8.235 180.629,8.23 180.47,8.23 C180.23,8.23 179.867,8.241 179.379,8.263" id="Fill-19"></path>
            <path d="M55.447,15.634 L54.732,14.028 L54.069,15.634 L55.447,15.634 Z M54.515,13.054 L54.961,13.054 L56.949,17.513 L56.299,17.513 L55.708,16.198 L53.817,16.198 L53.263,17.513 L52.61,17.513 L54.515,13.054 L54.515,13.054 Z" id="Fill-20"></path>
            <path d="M64.815,13.618 L64.625,13.618 L64.625,15.019 L64.866,15.019 C65.188,15.019 65.408,14.99 65.528,14.936 C65.648,14.881 65.741,14.798 65.807,14.687 C65.874,14.575 65.907,14.449 65.907,14.308 C65.907,14.167 65.87,14.041 65.796,13.928 C65.722,13.814 65.618,13.734 65.483,13.689 C65.349,13.642 65.127,13.618 64.815,13.618 Z M63.99,17.513 L63.99,13.079 L65.101,13.079 C65.55,13.079 65.906,13.191 66.169,13.412 C66.433,13.634 66.564,13.935 66.564,14.314 C66.564,14.571 66.499,14.795 66.371,14.983 C66.242,15.172 66.057,15.313 65.815,15.405 C65.957,15.498 66.096,15.625 66.231,15.786 C66.366,15.947 66.557,16.228 66.802,16.627 C66.956,16.879 67.081,17.068 67.174,17.195 L67.408,17.513 L66.653,17.513 L66.46,17.221 C66.454,17.21 66.441,17.192 66.422,17.167 L66.298,16.992 L66.102,16.668 L65.889,16.322 C65.758,16.14 65.638,15.995 65.529,15.887 C65.42,15.779 65.321,15.702 65.233,15.654 C65.146,15.607 64.998,15.583 64.79,15.583 L64.625,15.583 L64.625,17.513 L63.99,17.513 L63.99,17.513 Z" id="Fill-21"></path>
            <path d="M78.249,16.484 L78.249,17.183 C77.784,17.437 77.246,17.563 76.637,17.563 C76.142,17.563 75.722,17.464 75.377,17.265 C75.032,17.066 74.759,16.792 74.558,16.443 C74.357,16.094 74.256,15.716 74.256,15.31 C74.256,14.665 74.486,14.122 74.947,13.682 C75.407,13.242 75.975,13.022 76.649,13.022 C77.115,13.022 77.632,13.144 78.202,13.387 L78.202,14.069 C77.683,13.773 77.176,13.625 76.681,13.625 C76.173,13.625 75.752,13.785 75.416,14.106 C75.081,14.426 74.914,14.827 74.914,15.31 C74.914,15.797 75.079,16.196 75.409,16.51 C75.739,16.823 76.161,16.979 76.675,16.979 C77.212,16.979 77.737,16.814 78.249,16.484" id="Fill-22"></path>
            <polyline id="Fill-23" points="88.687 13.079 89.321 13.079 89.321 17.513 88.687 17.513 88.687 15.583 86.195 15.583 86.195 17.513 85.56 17.513 85.56 13.079 86.195 13.079 86.195 14.996 88.687 14.996 88.687 13.079"></polyline>
            <polygon id="Fill-24" points="96.835 17.513 97.47 17.513 97.47 13.079 96.835 13.079"></polygon>
            <polyline id="Fill-25" points="103.794 13.072 107.497 13.072 107.497 13.638 105.952 13.638 105.952 17.513 105.313 17.513 105.313 13.638 103.794 13.638 103.794 13.072"></polyline>
            <polyline id="Fill-26" points="114.628 13.079 117.142 13.079 117.142 13.644 115.263 13.644 115.263 14.996 117.079 14.996 117.079 15.564 115.263 15.564 115.263 16.941 117.202 16.941 117.202 17.507 114.628 17.507 114.628 13.079"></polyline>
            <path d="M128.23,16.484 L128.23,17.183 C127.765,17.437 127.227,17.563 126.617,17.563 C126.123,17.563 125.702,17.464 125.357,17.265 C125.013,17.066 124.74,16.792 124.539,16.443 C124.338,16.094 124.237,15.716 124.237,15.31 C124.237,14.665 124.468,14.122 124.928,13.682 C125.388,13.242 125.955,13.022 126.631,13.022 C127.096,13.022 127.613,13.144 128.183,13.387 L128.183,14.069 C127.664,13.773 127.157,13.625 126.662,13.625 C126.154,13.625 125.732,13.785 125.397,14.106 C125.062,14.426 124.895,14.827 124.895,15.31 C124.895,15.797 125.06,16.196 125.39,16.51 C125.72,16.823 126.142,16.979 126.656,16.979 C127.193,16.979 127.718,16.814 128.23,16.484" id="Fill-27"></path>
            <polyline id="Fill-28" points="134.351 13.072 138.054 13.072 138.054 13.638 136.509 13.638 136.509 17.513 135.87 17.513 135.87 13.638 134.351 13.638 134.351 13.072"></polyline>
            <path d="M146.283,15.655 L145.801,15.362 C145.498,15.177 145.283,14.995 145.155,14.816 C145.027,14.638 144.963,14.432 144.963,14.199 C144.963,13.851 145.084,13.566 145.326,13.349 C145.568,13.131 145.884,13.022 146.271,13.022 C146.641,13.022 146.98,13.126 147.289,13.334 L147.289,14.054 C146.97,13.747 146.626,13.593 146.258,13.593 C146.051,13.593 145.88,13.641 145.747,13.737 C145.613,13.833 145.547,13.955 145.547,14.106 C145.547,14.238 145.596,14.362 145.694,14.479 C145.792,14.594 145.95,14.716 146.168,14.844 L146.652,15.13 C147.193,15.453 147.464,15.864 147.464,16.364 C147.464,16.72 147.345,17.008 147.106,17.23 C146.869,17.452 146.56,17.563 146.179,17.563 C145.74,17.563 145.342,17.429 144.981,17.159 L144.981,16.354 C145.325,16.788 145.722,17.005 146.172,17.005 C146.371,17.005 146.536,16.949 146.669,16.839 C146.801,16.729 146.867,16.59 146.867,16.423 C146.867,16.153 146.673,15.898 146.283,15.655" id="Fill-29"></path>
            <polyline id="Fill-30" points="159.604 13.079 160.238 13.079 160.238 16.935 162.235 16.935 162.235 17.513 159.604 17.513 159.604 13.079"></polyline>
            <polyline id="Fill-31" points="168.131 13.072 171.834 13.072 171.834 13.638 170.289 13.638 170.289 17.513 169.65 17.513 169.65 13.638 168.131 13.638 168.131 13.072"></polyline>
            <path d="M180.399,13.644 L179.605,13.644 L179.605,16.941 L180.418,16.941 C180.735,16.941 180.981,16.92 181.157,16.876 C181.333,16.833 181.479,16.778 181.597,16.711 C181.715,16.645 181.822,16.562 181.919,16.466 C182.232,16.147 182.389,15.747 182.389,15.263 C182.389,14.786 182.229,14.398 181.906,14.098 C181.788,13.985 181.652,13.894 181.499,13.821 C181.346,13.75 181.2,13.702 181.063,13.679 C180.925,13.655 180.704,13.644 180.399,13.644 Z M178.971,17.507 L178.971,13.079 L180.466,13.079 C181.068,13.079 181.546,13.169 181.897,13.351 C182.248,13.531 182.527,13.797 182.735,14.149 C182.942,14.5 183.046,14.883 183.046,15.298 C183.046,15.594 182.989,15.877 182.874,16.147 C182.761,16.419 182.598,16.657 182.386,16.862 C182.17,17.073 181.919,17.233 181.634,17.341 C181.467,17.407 181.313,17.451 181.173,17.473 C181.034,17.495 180.767,17.507 180.374,17.507 L178.971,17.507 L178.971,17.507 Z" id="Fill-32"></path>
        </g>
    </g>
</svg>