<?xml version="1.0" encoding="UTF-8"?>
<svg width="20px" height="20px" viewBox="0 0 20 20" version="1.1" xmlns="http://www.w3.org/2000/svg" xmlns:xlink="http://www.w3.org/1999/xlink">
    <!-- Generator: Sketch 40.3 (33839) - http://www.bohemiancoding.com/sketch -->
    <title>Shape</title>
    <desc>Created with Sketch.</desc>
    <defs></defs>
    <g id="Project" stroke="none" stroke-width="1" fill="none" fill-rule="evenodd">
        <g id="Project-(Desktop)" transform="translate(-196.000000, -1127.000000)" fill="#BD081C">
            <g id="AUX-ACTIONS" transform="translate(12.000000, 1115.000000)">
                <g id="BTN-PIN" transform="translate(159.000000, 0.000000)">
                    <path d="M34.8823529,12 C29.4248235,12 25,16.4248235 25,21.8823529 C25,26.07 27.604,29.6461765 31.2802353,31.0852941 C31.1937647,30.3033529 31.1159412,29.1038824 31.3148235,28.2502941 C31.4951765,27.4782353 32.4735294,23.3375294 32.4735294,23.3375294 C32.4735294,23.3375294 32.1770588,22.7445882 32.1770588,21.87 C32.1770588,20.4988235 32.9750588,19.4698235 33.9657647,19.4698235 C34.8094706,19.4698235 35.2158824,20.1035294 35.2158824,20.862 C35.2158824,21.7106471 34.6772941,22.9780588 34.3981177,24.1528235 C34.1634118,25.1373529 34.8922353,25.9378235 35.8619412,25.9378235 C37.6160588,25.9378235 38.9674706,24.0873529 38.9674706,21.4141765 C38.9674706,19.0485882 37.2677059,17.3945294 34.8391176,17.3945294 C32.0275882,17.3945294 30.3797059,19.5031765 30.3797059,21.6834706 C30.3797059,22.5321176 30.7045882,23.4425294 31.1122353,23.9378824 C31.1937647,24.0367059 31.2048823,24.1231765 31.1826471,24.222 C31.1085294,24.5332941 30.9405294,25.2052941 30.9071765,25.3424118 C30.8639412,25.5227647 30.7651177,25.5622941 30.5761177,25.4745882 C29.3432941,24.9001765 28.57,23.0954118 28.57,21.6451765 C28.57,18.5272941 30.8355294,15.6663529 35.101,15.6663529 C38.5277059,15.6663529 41.1934706,18.1085294 41.1934706,21.3734118 C41.1934706,24.7791176 39.0440588,27.5214706 36.0632941,27.5214706 C35.0627059,27.5214706 34.1214118,27.0001765 33.799,26.385 L33.1813529,28.7345294 C32.959,29.5930588 32.3574118,30.669 31.9534706,31.3249412 C32.8799412,31.6115294 33.862,31.7659412 34.8811177,31.7659412 C40.3374118,31.7659412 44.7634706,27.3411176 44.7634706,21.8835882 C44.7634706,16.4260588 40.3374118,12.0012353 34.8811177,12.0012353 L34.8823529,12 L34.8823529,12 Z" id="Shape"></path>
                </g>
            </g>
        </g>
    </g>
</svg>